<svg id="PMI-Horizontal" xmlns="http://www.w3.org/2000/svg" xmlns:xlink="http://www.w3.org/1999/xlink" width="194.758" height="44.998" viewBox="0 0 194.758 44.998">
  <defs>
    <clipPath id="clip-path">
      <path id="Clip_25" data-name="Clip 25" d="M0,0H6.946V11.888H0Z" fill="none"/>
    </clipPath>
    <clipPath id="clip-path-2">
      <path id="Clip_112" data-name="Clip 112" d="M0,0H60.942V44.548H0Z" fill="none"/>
    </clipPath>
  </defs>
  <rect id="PMI-Horizontal_background" data-name="PMI-Horizontal background" width="194.758" height="44.998" fill="rgba(0,0,0,0)"/>
  <g id="Group_119" data-name="Group 119" transform="translate(0 0.352)">
    <path id="Fill_1" data-name="Fill 1" d="M0,33.541H.559V0H0Z" transform="translate(74.34 5.417)" fill="#fff"/>
    <g id="Group_118" data-name="Group 118" transform="translate(0 0)">
      <path id="Fill_2" data-name="Fill 2" d="M4.509,11.508H0V11.2H1.573V.306H0V0H4.781A3.712,3.712,0,0,1,7.328.876,2.88,2.88,0,0,1,8.32,3.133,2.434,2.434,0,0,1,7.392,5.2a4.484,4.484,0,0,1-2.726.7H2.936v5.3H4.509v.307ZM2.936.306V5.59H4.461a2.626,2.626,0,0,0,1.926-.5,3.779,3.779,0,0,0,.435-2.235A3.237,3.237,0,0,0,6.368.793,2.284,2.284,0,0,0,4.682.306Z" transform="translate(86.341 8.329)" fill="#fff"/>
      <path id="Fill_4" data-name="Fill 4" d="M7.272,4.887V.307H5.7V0h4.508V.307H8.618V11.2h1.59v.307H5.7V11.2H7.272V5.2H2.936V11.2H4.51v.307H0V11.2H1.574V.307H0V0H4.51V.307H2.936V4.887Z" transform="translate(95.439 8.328)" fill="#fff"/>
      <path id="Fill_6" data-name="Fill 6" d="M2.934,11.2H4.507v.307H0V11.2H1.571V.306H0V0H4.507V.306H2.934Z" transform="translate(106.609 8.329)" fill="#fff"/>
      <path id="Fill_8" data-name="Fill 8" d="M4.508,0V.307H2.935V11.2H4.359a2.935,2.935,0,0,0,2.484-1.16A7.875,7.875,0,0,0,8.049,6.348h.18v5.161H0V11.2H1.571V.307H0V0Z" transform="translate(112.077 8.328)" fill="#fff"/>
      <path id="Fill_10" data-name="Fill 10" d="M2.936,11.2h1.57v.307H0V11.2H1.572V.306H0V0H4.507V.306H2.936Z" transform="translate(121.454 8.329)" fill="#fff"/>
      <path id="Fill_12" data-name="Fill 12" d="M4.509,11.508H0V11.2H1.573V.306H0V0H4.78A3.715,3.715,0,0,1,7.327.876a2.882,2.882,0,0,1,.991,2.257A2.434,2.434,0,0,1,7.391,5.2a4.484,4.484,0,0,1-2.726.7H2.936v5.3H4.509v.307ZM2.936.306V5.59H4.461a2.626,2.626,0,0,0,1.925-.5,3.779,3.779,0,0,0,.435-2.235A3.232,3.232,0,0,0,6.366.793,2.281,2.281,0,0,0,4.682.306Z" transform="translate(126.923 8.329)" fill="#fff"/>
      <path id="Fill_14" data-name="Fill 14" d="M4.923,11.508,1.986.19V9.5a2.326,2.326,0,0,0,.28,1.3,1.033,1.033,0,0,0,.905.395h.513v.307H0V11.2H.275a1.343,1.343,0,0,0,1.057-.395,1.768,1.768,0,0,0,.346-1.193V1.375A1.057,1.057,0,0,0,1.387.552,1.524,1.524,0,0,0,.409.307H0V0H3.216L5.56,9,8.018,0h3.037V.307H9.494V11.2h1.562v.307H6.63V11.2H8.211L8.273.19,5.184,11.508Z" transform="translate(140.1 8.328)" fill="#fff"/>
      <path id="Fill_16" data-name="Fill 16" d="M4.033,11.887a3.027,3.027,0,0,1-1.486-.4,4.046,4.046,0,0,1-1.281-1.122A6.189,6.189,0,0,1,.314,8.457a7.688,7.688,0,0,1-.236-1.11A8.865,8.865,0,0,1,0,6.117,9.308,9.308,0,0,1,.188,4.24a7.716,7.716,0,0,1,.555-1.7A5.148,5.148,0,0,1,2.181.66,2.984,2.984,0,0,1,4.033,0,2.868,2.868,0,0,1,5.34.319a3.629,3.629,0,0,1,1.135.929,6.558,6.558,0,0,1,1.17,2.166,8.738,8.738,0,0,1,.4,2.7,8.128,8.128,0,0,1-.314,2.332,6.2,6.2,0,0,1-.954,1.913A3.958,3.958,0,0,1,5.521,11.48,3.023,3.023,0,0,1,4.033,11.887Zm0-11.6a2.007,2.007,0,0,0-.983.266,2.377,2.377,0,0,0-.811.738,3.755,3.755,0,0,0-.545,1.4,11.7,11.7,0,0,0-.11,1.237c-.025.513-.037,1.152-.037,2.013v.371a22.93,22.93,0,0,0,.1,2.626A3.417,3.417,0,0,0,2,10.134a2.942,2.942,0,0,0,.889,1.075,1.953,1.953,0,0,0,2.286,0,2.989,2.989,0,0,0,.881-1.079,3.95,3.95,0,0,0,.343-1.267A25.91,25.91,0,0,0,6.5,5.943a21.772,21.772,0,0,0-.158-3.278A3.413,3.413,0,0,0,5.81,1.292,2.4,2.4,0,0,0,5,.555,1.961,1.961,0,0,0,4.033.289Z" transform="translate(152.44 8.148)" fill="#fff"/>
      <path id="Fill_18" data-name="Fill 18" d="M8.815,11.708a2.111,2.111,0,0,1-1.825-.717A4.943,4.943,0,0,1,6.467,8.28a3.381,3.381,0,0,0-.4-1.976A1.769,1.769,0,0,0,4.65,5.818H2.935V11.2H4.506v.307H0V11.2H1.57V.307H0V0H5.182A3.21,3.21,0,0,1,7.418.718,2.616,2.616,0,0,1,8.21,2.748a2.685,2.685,0,0,1-.792,2.029,3.652,3.652,0,0,1-2.25.9,3.3,3.3,0,0,1,.965.133,2.865,2.865,0,0,1,.773.373,2.21,2.21,0,0,1,.846,1.275,2.346,2.346,0,0,1,.056.239c.006.043.016.105.029.192l.026.172a7.856,7.856,0,0,1,.04.807v.8a1.939,1.939,0,0,0,.014.281c.012.086.022.148.029.186a1.182,1.182,0,0,0,.032.14l0,.015a1.723,1.723,0,0,0,.4.824.977.977,0,0,0,.7.238H9.23a1.467,1.467,0,0,1,.177-.037.739.739,0,0,0,.133-.032A2.114,2.114,0,0,0,9.76,11.2v.3a1.815,1.815,0,0,1-.442.146c-.074.015-.149.028-.243.042A2.117,2.117,0,0,1,8.815,11.708ZM2.935.307V5.528H4.426a2.347,2.347,0,0,0,1.836-.552,3.673,3.673,0,0,0,.459-2.2A3.128,3.128,0,0,0,6.274.839,2.055,2.055,0,0,0,4.65.307Z" transform="translate(161.649 8.328)" fill="#fff"/>
      <path id="Fill_20" data-name="Fill 20" d="M8.812,11.708a2.11,2.11,0,0,1-1.823-.717A4.961,4.961,0,0,1,6.467,8.28a3.376,3.376,0,0,0-.4-1.976A1.762,1.762,0,0,0,4.65,5.818H2.936V11.2H4.509v.307H0V11.2H1.572V.307H0V0H5.183A3.226,3.226,0,0,1,7.421.718a2.628,2.628,0,0,1,.79,2.031,2.7,2.7,0,0,1-.79,2.029,3.67,3.67,0,0,1-2.251.9,3.267,3.267,0,0,1,.962.133,2.752,2.752,0,0,1,.775.373,2.216,2.216,0,0,1,.848,1.275c.024.086.042.164.056.239,0,.031.01.073.019.126s.022.143.036.239c.025.261.038.533.038.807v.8a2.252,2.252,0,0,0,.016.281c.01.09.02.151.027.186s.01.045.016.069.013.056.019.085a1.752,1.752,0,0,0,.4.824.982.982,0,0,0,.7.238h.153a1.224,1.224,0,0,1,.174-.037.685.685,0,0,0,.13-.032,2.179,2.179,0,0,0,.224-.086v.3a1.875,1.875,0,0,1-.443.146c-.075.016-.152.029-.244.042A2.163,2.163,0,0,1,8.812,11.708ZM2.936.307V5.528H4.428a2.351,2.351,0,0,0,1.834-.552,3.681,3.681,0,0,0,.46-2.2A3.129,3.129,0,0,0,6.273.839,2.054,2.054,0,0,0,4.65.307Z" transform="translate(171.735 8.328)" fill="#fff"/>
      <path id="Fill_22" data-name="Fill 22" d="M2.935,11.2H4.508v.307H0V11.2H1.571V.306H0V0H4.508V.306H2.935Z" transform="translate(181.821 8.329)" fill="#fff"/>
      <g id="Group_26" data-name="Group 26" transform="translate(187.571 8.148)">
        <path id="Clip_25-2" data-name="Clip 25" d="M0,0H6.946V11.888H0Z" transform="translate(0 0)" fill="none"/>
        <g id="Group_26-2" data-name="Group 26" transform="translate(0 0)" clip-path="url(#clip-path)">
          <path id="Fill_24" data-name="Fill 24" d="M0,11.768v-4.9H.242a7.164,7.164,0,0,0,1.274,3.478A2.92,2.92,0,0,0,3.9,11.581a2.157,2.157,0,0,0,1.589-.641,2.2,2.2,0,0,0,.639-1.612A2.264,2.264,0,0,0,5.67,7.917,5.931,5.931,0,0,0,3.949,6.562q-.378-.239-1.127-.626A8.722,8.722,0,0,1,1.036,4.8a2.562,2.562,0,0,1-.555-.841,2.665,2.665,0,0,1-.2-1.007A3.022,3.022,0,0,1,1.036.829,2.513,2.513,0,0,1,2.98,0,2.721,2.721,0,0,1,4.367.355,4.461,4.461,0,0,1,5.6,1.525L6.5,0H6.59V4.417H6.347A6.89,6.89,0,0,0,5.108,1.369,2.587,2.587,0,0,0,3.03.306,2.3,2.3,0,0,0,1.479.836,1.69,1.69,0,0,0,.864,2.172q0,1.013,2.472,2.362l.745.4a7.5,7.5,0,0,1,2.227,1.7,2.989,2.989,0,0,1,.638,1.9,3.4,3.4,0,0,1-.882,2.4,2.886,2.886,0,0,1-2.207.951,2.912,2.912,0,0,1-1.523-.43,4.367,4.367,0,0,1-1.3-1.269l-.853,1.58Z" fill="#fff"/>
        </g>
      </g>
      <path id="Fill_27" data-name="Fill 27" d="M2.936,11.2H4.509v.307H0V11.2H1.573V.307H0V0H4.509V.307H2.936Z" transform="translate(86.341 24.517)" fill="#fff"/>
      <path id="Fill_29" data-name="Fill 29" d="M1.986,1.282V9.02a3.041,3.041,0,0,0,.357,1.632,1.2,1.2,0,0,0,1.082.549h.259v.306H0V11.2H.277a1.169,1.169,0,0,0,1.063-.527,3.05,3.05,0,0,0,.339-1.623V1A1.051,1.051,0,0,0,1.254.468,1.744,1.744,0,0,0,.4.308H0V0H2.807L7.352,8.735V2.507A3.013,3.013,0,0,0,6.988.862,1.214,1.214,0,0,0,5.9.308H5.637V0h3.7V.308H9.049A1.185,1.185,0,0,0,7.988.841a3.01,3.01,0,0,0-.346,1.617v9.25H7.413Z" transform="translate(91.331 24.516)" fill="#fff"/>
      <path id="Fill_31" data-name="Fill 31" d="M1.771,11.508V11.2H3.333V.3L3.216.29H3.09A2.32,2.32,0,0,0,1.034,1.357a4.755,4.755,0,0,0-.6,1.369A7.576,7.576,0,0,0,.181,4.744H0V0H8.131V4.744H7.941a7.377,7.377,0,0,0-.918-3.5A2.646,2.646,0,0,0,4.729.29H4.7V11.2H6.271v.307Z" transform="translate(101.028 24.516)" fill="#fff"/>
      <path id="Fill_33" data-name="Fill 33" d="M0,11.508V11.2H1.573V.308H0V0H8.015V3.911H7.842a5.965,5.965,0,0,0-.934-2.8,2.372,2.372,0,0,0-1.966-.8H2.936V5.176h.616a1.669,1.669,0,0,0,1.389-.671,2.665,2.665,0,0,0,.4-.821,3.672,3.672,0,0,0,.147-1.073h.163V7.859H5.493a3.8,3.8,0,0,0-.135-1.073,2.212,2.212,0,0,0-.377-.768,1.593,1.593,0,0,0-1.333-.554H2.936V11.2H4.911A2.434,2.434,0,0,0,7,10.17,6.882,6.882,0,0,0,8,6.965H8.18v4.543Z" transform="translate(109.704 24.516)" fill="#fff"/>
      <path id="Fill_35" data-name="Fill 35" d="M8.814,11.708a2.122,2.122,0,0,1-1.825-.717A4.975,4.975,0,0,1,6.47,8.28a3.379,3.379,0,0,0-.4-1.977,1.762,1.762,0,0,0-1.419-.486H2.937V11.2H4.51v.307H0V11.2H1.573V.308H0V0H5.186A3.231,3.231,0,0,1,7.422.718a2.625,2.625,0,0,1,.789,2.03,2.7,2.7,0,0,1-.787,2.029,3.689,3.689,0,0,1-2.254.9,3.277,3.277,0,0,1,.964.134,2.711,2.711,0,0,1,.772.373,2.2,2.2,0,0,1,.849,1.274,1.913,1.913,0,0,1,.055.238l0,.031c.011.073.027.183.05.333a7.276,7.276,0,0,1,.04.807v.806a2.146,2.146,0,0,0,.016.281c.006.048.012.09.018.125l.009.06a1.491,1.491,0,0,0,.036.155,1.756,1.756,0,0,0,.4.824.986.986,0,0,0,.7.237h.15a1.546,1.546,0,0,1,.172-.035.869.869,0,0,0,.135-.033,2.1,2.1,0,0,0,.223-.085v.3a1.893,1.893,0,0,1-.444.146c-.085.018-.165.032-.244.042A1.98,1.98,0,0,1,8.814,11.708ZM2.937.308v5.22H4.431a2.348,2.348,0,0,0,1.833-.552,3.678,3.678,0,0,0,.458-2.2A3.144,3.144,0,0,0,6.276.839,2.056,2.056,0,0,0,4.652.308Z" transform="translate(119.251 24.516)" fill="#fff"/>
      <path id="Fill_37" data-name="Fill 37" d="M1.987,1.282V9.02a3.01,3.01,0,0,0,.355,1.632,1.2,1.2,0,0,0,1.08.549h.263v.306H0V11.2H.275a1.173,1.173,0,0,0,1.066-.527,3.055,3.055,0,0,0,.338-1.623V1A1.033,1.033,0,0,0,1.252.468,1.724,1.724,0,0,0,.4.308H0V0H2.805L7.352,8.735V2.507A3.026,3.026,0,0,0,6.989.862,1.222,1.222,0,0,0,5.9.308h-.26V0H9.341V.308H9.047A1.176,1.176,0,0,0,7.99.841a2.994,2.994,0,0,0-.346,1.617v9.25h-.23Z" transform="translate(128.858 24.516)" fill="#fff"/>
      <path id="Fill_39" data-name="Fill 39" d="M3.5,11.69H0v-.309a1.646,1.646,0,0,0,1.09-.552A5.282,5.282,0,0,0,1.9,9.082L4.616,0h.354L8.4,11.383H9.435v.307H5.655v-.307l1.36,0L6.027,8.014H2.521L2.133,9.327l-.019.062a1.474,1.474,0,0,0-.04.144c-.01.045-.023.122-.036.213l-.033.419a1.242,1.242,0,0,0,.312.9,1.145,1.145,0,0,0,.851.32H3.5v.307Zm.8-9.549L2.623,7.725H5.93Z" transform="translate(137.427 24.335)" fill="#fff"/>
      <path id="Fill_41" data-name="Fill 41" d="M1.771,11.508V11.2H3.333V.3L3.214.29H3.088A2.315,2.315,0,0,0,1.034,1.357a4.775,4.775,0,0,0-.6,1.369A7.621,7.621,0,0,0,.181,4.744H0V0H8.131V4.744H7.941a7.4,7.4,0,0,0-.918-3.5A2.649,2.649,0,0,0,4.729.29H4.7V11.2H6.27v.307Z" transform="translate(145.842 24.516)" fill="#fff"/>
      <path id="Fill_43" data-name="Fill 43" d="M2.936,11.2H4.505v.307H0V11.2H1.571V.307H0V0H4.505V.307H2.936Z" transform="translate(154.52 24.517)" fill="#fff"/>
      <path id="Fill_45" data-name="Fill 45" d="M4.035,11.888a3.077,3.077,0,0,1-1.487-.4,4.068,4.068,0,0,1-1.285-1.123,6.263,6.263,0,0,1-.947-1.9A8.06,8.06,0,0,1,.08,7.347,8.88,8.88,0,0,1,0,6.118,9.455,9.455,0,0,1,.19,4.24a7.761,7.761,0,0,1,.553-1.7A5.139,5.139,0,0,1,2.184.661,2.981,2.981,0,0,1,4.035,0,2.851,2.851,0,0,1,5.341.32a3.651,3.651,0,0,1,1.137.929,6.626,6.626,0,0,1,1.17,2.166,8.748,8.748,0,0,1,.4,2.7,8.209,8.209,0,0,1-.31,2.332,6.229,6.229,0,0,1-.955,1.912,4,4,0,0,1-1.259,1.118A3.033,3.033,0,0,1,4.035,11.888Zm0-11.6a2.029,2.029,0,0,0-.986.265,2.414,2.414,0,0,0-.808.739,3.67,3.67,0,0,0-.545,1.4,11.2,11.2,0,0,0-.11,1.237c-.028.559-.041,1.236-.041,2.013v.371a23.035,23.035,0,0,0,.1,2.625A3.4,3.4,0,0,0,2,10.134a2.9,2.9,0,0,0,.888,1.076,1.95,1.95,0,0,0,1.149.371,1.891,1.891,0,0,0,1.132-.367,2.935,2.935,0,0,0,.888-1.08,4.017,4.017,0,0,0,.34-1.265,25.958,25.958,0,0,0,.11-2.926,21.967,21.967,0,0,0-.158-3.278,3.5,3.5,0,0,0-.536-1.372A2.42,2.42,0,0,0,5,.554,1.98,1.98,0,0,0,4.035.289Z" transform="translate(159.814 24.336)" fill="#fff"/>
      <path id="Fill_47" data-name="Fill 47" d="M1.985,1.282V9.02a3.051,3.051,0,0,0,.356,1.632,1.2,1.2,0,0,0,1.084.549h.258v.306H0V11.2H.276a1.168,1.168,0,0,0,1.063-.527,3.056,3.056,0,0,0,.337-1.623V1A1.035,1.035,0,0,0,1.255.468,1.755,1.755,0,0,0,.4.308H0V0H2.808L7.35,8.735V2.507A3,3,0,0,0,6.987.862,1.213,1.213,0,0,0,5.9.308H5.637V0h3.7V.308H9.047A1.18,1.18,0,0,0,7.989.841a3.035,3.035,0,0,0-.347,1.617v9.25H7.415Z" transform="translate(168.542 24.516)" fill="#fff"/>
      <path id="Fill_49" data-name="Fill 49" d="M3.5,11.69H0v-.309a1.657,1.657,0,0,0,1.091-.552,5.251,5.251,0,0,0,.8-1.747L4.616,0h.358L8.4,11.383H9.438v.307H5.654v-.307l1.364,0L6.029,8.014H2.522L2.134,9.327c-.033.107-.05.17-.058.206l-.005.028c-.007.041-.019.1-.032.184l-.031.419a1.23,1.23,0,0,0,.315.9,1.134,1.134,0,0,0,.851.32H3.5v.307Zm.8-9.549L2.624,7.725H5.931Z" transform="translate(177.109 24.335)" fill="#fff"/>
      <path id="Fill_51" data-name="Fill 51" d="M4.51,0V.308H2.937V11.2H4.356A2.946,2.946,0,0,0,6.844,10.04a7.9,7.9,0,0,0,1.2-3.693h.178v5.161H0V11.2H1.572V.308H0V0Z" transform="translate(186.148 24.516)" fill="#fff"/>
      <path id="Fill_53" data-name="Fill 53" d="M.157,6.526c.137.088.348-.009.57-.126.466-.243.56-.658.719-3.165C1.576,1.19,1.091.44.877.213A.58.58,0,0,0,.472,0h0C.122.026.091.414.091.776.091,1.215.048,4.935.006,5.8c-.023.42.024.645.152.724" transform="translate(26.896 16.245)" fill="#fff"/>
      <path id="Fill_55" data-name="Fill 55" d="M.971,1.918l-.4.121L0,.118.4,0Z" transform="translate(16.792 40.438)" fill="#fff"/>
      <path id="Fill_57" data-name="Fill 57" d="M0,.394.424.285l1.1,1.154L1.182.094,1.559,0,2.05,1.938l-.4.1L.521.87l.35,1.367-.376.1Z" transform="translate(18.048 39.796)" fill="#fff"/>
      <path id="Fill_59" data-name="Fill 59" d="M1.586,0l.068.343L1.067.46,1.39,2.08l-.409.084L.657.541.068.66,0,.321Z" transform="translate(20.349 39.309)" fill="#fff"/>
      <path id="Fill_61" data-name="Fill 61" d="M1.488.353.461.51l.06.414.944-.14.051.342-.94.142.077.511,1.077-.161.053.355L.3,2.2,0,.217,1.434,0Z" transform="translate(22.703 38.961)" fill="#fff"/>
      <path id="Fill_63" data-name="Fill 63" d="M.194,2.092h0L0,.1.951.005C.991,0,1.029,0,1.065,0a.739.739,0,0,1,.2.025.476.476,0,0,1,.2.121A.718.718,0,0,1,1.585.3a.608.608,0,0,1,.059.209A.592.592,0,0,1,1.6.8a.4.4,0,0,1-.215.218.361.361,0,0,1,.208.138.662.662,0,0,1,.09.307l.012.131a1.032,1.032,0,0,0,.029.186.171.171,0,0,0,.088.105l0,.05-.457.045,0-.006a.875.875,0,0,1-.035-.1A1.039,1.039,0,0,1,1.286,1.7l-.022-.186a.381.381,0,0,0-.09-.245.254.254,0,0,0-.164-.046.656.656,0,0,0-.082.006l-.4.04.076.78-.406.04ZM.968.355.9.358.439.406.492.94.941.9A.445.445,0,0,0,1.136.843a.226.226,0,0,0,.1-.235.252.252,0,0,0-.14-.233A.292.292,0,0,0,.968.355Z" transform="translate(25.026 38.752)" fill="#fff"/>
      <path id="Fill_65" data-name="Fill 65" d="M0,.075.438.051,1.281,1.4,1.218.018,1.608,0,1.7,2l-.418.019L.415.644.48,2.054l-.388.018Z" transform="translate(27.506 38.556)" fill="#fff"/>
      <path id="Fill_67" data-name="Fill 67" d="M1.9,2.009h0l-.454,0L1.317,1.6.577,1.59.44,2H0L.725,0,1.2,0l.7,2ZM.961.459l-.266.783.512,0Z" transform="translate(29.856 38.542)" fill="#fff"/>
      <path id="Fill_69" data-name="Fill 69" d="M1.634.082,1.616.429,1.019.4.934,2.049.516,2.031.6.376,0,.348.018,0Z" transform="translate(32.124 38.564)" fill="#fff"/>
      <path id="Fill_71" data-name="Fill 71" d="M.418,2.032,0,1.994.172,0,.588.036Z" transform="translate(34.274 38.703)" fill="#fff"/>
      <path id="Fill_73" data-name="Fill 73" d="M1,2.122A1.369,1.369,0,0,1,.829,2.11.863.863,0,0,1,.21,1.8a1.09,1.09,0,0,1-.2-.856A1.057,1.057,0,0,1,.421.162.791.791,0,0,1,.934,0,1.362,1.362,0,0,1,1.1.01a.883.883,0,0,1,.62.317,1.088,1.088,0,0,1,.195.858,1.1,1.1,0,0,1-.4.778A.789.789,0,0,1,1,2.122ZM.979.363A.475.475,0,0,0,.641.5a.813.813,0,0,0-.21.495.792.792,0,0,0,.079.529.469.469,0,0,0,.366.232.566.566,0,0,0,.081.006.465.465,0,0,0,.331-.138A.8.8,0,0,0,1.5,1.128.826.826,0,0,0,1.42.6a.483.483,0,0,0-.366-.23.624.624,0,0,0-.075,0Z" transform="translate(35.528 38.859)" fill="#fff"/>
      <path id="Fill_75" data-name="Fill 75" d="M.363,0,.793.081l.516,1.5L1.562.223l.381.07L1.58,2.26l-.41-.075L.639.653.38,2.038,0,1.97Z" transform="translate(38.028 39.187)" fill="#fff"/>
      <path id="Fill_77" data-name="Fill 77" d="M1.848,2.223h0l-.442-.107-.033-.429L.655,1.516.43,1.882,0,1.777,1.164,0l.464.11.22,2.112ZM1.287.5l-.435.7.494.121Z" transform="translate(40.257 39.803)" fill="#fff"/>
      <path id="Fill_79" data-name="Fill 79" d="M.564,0l.4.118L.5,1.7l.957.284-.1.341L0,1.922Z" transform="translate(42.735 40.282)" fill="#fff"/>
      <path id="Fill_81" data-name="Fill 81" d="M.563,2.2h0L0,.278.824.038A.843.843,0,0,1,1.065,0,.6.6,0,0,1,1.32.055a.612.612,0,0,1,.3.411A.622.622,0,0,1,1.6,1a.744.744,0,0,1-.437.278l-.4.117.2.688-.4.119ZM.974.372A.44.44,0,0,0,.856.389L.5.495l.166.564.355-.1a.328.328,0,0,0,.19-.132A.293.293,0,0,0,1.221.586.282.282,0,0,0,1.084.394.264.264,0,0,0,.974.372Z" transform="translate(16.099 37.757)" fill="#fff"/>
      <path id="Fill_83" data-name="Fill 83" d="M.454,2.313,0,.364.409.27l.173.745L1.328.839,1.157.1l.41-.1.451,1.948-.407.1-.2-.868-.75.174.2.868Z" transform="translate(18.624 36.964)" fill="#fff"/>
      <path id="Fill_85" data-name="Fill 85" d="M.777,1.968l-.412.074L0,.076.411,0Z" transform="translate(21.322 36.665)" fill="#fff"/>
      <path id="Fill_87" data-name="Fill 87" d="M0,.064.417,0,.65,1.63l.984-.142.054.355-1.4.2Z" transform="translate(22.884 36.403)" fill="#fff"/>
      <path id="Fill_89" data-name="Fill 89" d="M.622,1.992.2,2.033,0,.042.418,0Z" transform="translate(25.313 36.108)" fill="#fff"/>
      <path id="Fill_91" data-name="Fill 91" d="M.117,2.051h0L0,.05.858,0,.925,0a.646.646,0,0,1,.412.128.612.612,0,0,1,.2.47A.628.628,0,0,1,1.4,1.11a.743.743,0,0,1-.488.175L.5,1.309l.042.716-.42.026Zm.73-1.7H.811l-.37.02L.476.964.844.941A.3.3,0,0,0,1.056.855.288.288,0,0,0,1.121.623.277.277,0,0,0,1.032.408.289.289,0,0,0,.848.352Z" transform="translate(26.912 35.951)" fill="#fff"/>
      <path id="Fill_93" data-name="Fill 93" d="M1.391.038l.6.017-.062,2-.388-.011L1.582.693c0-.037,0-.092.006-.163s.005-.123.005-.162L1.166,2.037l-.4-.012L.44.332C.437.372.435.425.435.5s0,.126,0,.162L.391,2.011,0,2,.062,0,.667.018.983,1.6Z" transform="translate(30.977 35.87)" fill="#fff"/>
      <path id="Fill_95" data-name="Fill 95" d="M.987,2.119c-.039,0-.08,0-.121-.005a.874.874,0,0,1-.631-.293A1.088,1.088,0,0,1,.007.973,1.064,1.064,0,0,1,.386.179.824.824,0,0,1,.936,0c.039,0,.08,0,.122.005a.875.875,0,0,1,.63.3,1.056,1.056,0,0,1,.228.845,1.087,1.087,0,0,1-.378.794A.819.819,0,0,1,.987,2.119ZM.974.361A.479.479,0,0,0,.619.51a.816.816,0,0,0-.194.5.808.808,0,0,0,.1.527A.481.481,0,0,0,.9,1.757l.05,0a.469.469,0,0,0,.356-.149.8.8,0,0,0,.19-.5A.8.8,0,0,0,1.4.58.48.48,0,0,0,1.027.363l-.053,0Z" transform="translate(33.978 36.015)" fill="#fff"/>
      <path id="Fill_97" data-name="Fill 97" d="M1.611,2.221h0l-.454-.068a.9.9,0,0,1-.012-.111.879.879,0,0,1,.01-.171l.024-.185a.384.384,0,0,0-.027-.262.342.342,0,0,0-.227-.1l-.4-.06-.115.776L0,1.978.3,0l.944.143a.879.879,0,0,1,.3.1.468.468,0,0,1,.164.166A.564.564,0,0,1,1.79.589.6.6,0,0,1,1.8.8a.646.646,0,0,1-.114.267.407.407,0,0,1-.265.158.363.363,0,0,1,.169.187.635.635,0,0,1,.011.317l-.02.134a.982.982,0,0,0-.017.184.162.162,0,0,0,.059.122l-.008.05ZM.652.4.572.938,1.016,1a.885.885,0,0,0,.111.008A.3.3,0,0,0,1.219,1,.22.22,0,0,0,1.372.8.265.265,0,0,0,1.3.538.459.459,0,0,0,1.108.475Z" transform="translate(36.799 36.313)" fill="#fff"/>
      <path id="Fill_99" data-name="Fill 99" d="M1.594,2.294h0l-.45-.1c0-.042-.005-.077-.005-.11a.757.757,0,0,1,.021-.172l.034-.184a.37.37,0,0,0-.012-.261.322.322,0,0,0-.22-.112l-.4-.084L.4,2.041,0,1.957.414,0l.937.2a1,1,0,0,1,.3.116A.505.505,0,0,1,1.8.488a.554.554,0,0,1,.064.188.576.576,0,0,1-.007.213.6.6,0,0,1-.129.258.394.394,0,0,1-.273.142.378.378,0,0,1,.159.2.629.629,0,0,1-.009.318l-.027.13a1.155,1.155,0,0,0-.028.185.177.177,0,0,0,.05.125l-.008.049ZM.741.425h0L.632.95l.438.093a.679.679,0,0,0,.135.016.335.335,0,0,0,.069-.007.224.224,0,0,0,.161-.2.251.251,0,0,0-.06-.263A.4.4,0,0,0,1.193.519L.741.425Z" transform="translate(39.454 36.768)" fill="#fff"/>
      <path id="Fill_101" data-name="Fill 101" d="M.409,2.046,0,1.938.5,0,.908.107Z" transform="translate(42.035 37.37)" fill="#fff"/>
      <path id="Fill_103" data-name="Fill 103" d="M.418,1.318a.421.421,0,0,0,.013.217.442.442,0,0,0,.3.223.881.881,0,0,0,.24.038A.234.234,0,0,0,1.2,1.621a.168.168,0,0,0-.037-.171.935.935,0,0,0-.235-.168l-.19-.109A1.441,1.441,0,0,1,.371.9.493.493,0,0,1,.3.427.58.58,0,0,1,.618.055a.868.868,0,0,1,.606,0A.9.9,0,0,1,1.7.373a.6.6,0,0,1,.082.534L1.394.789A.288.288,0,0,0,1.317.5.608.608,0,0,0,1.1.377.457.457,0,0,0,.829.367.207.207,0,0,0,.681.51.175.175,0,0,0,.726.692,1.191,1.191,0,0,0,.954.846l.307.182a.876.876,0,0,1,.286.239.489.489,0,0,1,.053.443.573.573,0,0,1-.334.375.882.882,0,0,1-.623,0,.969.969,0,0,1-.54-.35A.6.6,0,0,1,.032,1.2Z" transform="translate(43.538 37.875)" fill="#fff"/>
      <path id="Fill_105" data-name="Fill 105" d="M8.077,19.4H8.071C3.621,19.4,0,15.049,0,9.7S3.621,0,8.071,0h.005c4.449,0,8.069,4.355,8.069,9.7S12.526,19.4,8.077,19.4Zm0-18.935C3.88.468.468,4.611.468,9.7s3.412,9.232,7.605,9.232,7.605-4.141,7.605-9.232S12.267.468,8.074.468Z" transform="translate(22.454 12.782)" fill="#fff"/>
      <path id="Fill_107" data-name="Fill 107" d="M7.605,18.467C3.412,18.467,0,14.325,0,9.235S3.412,0,7.605,0s7.605,4.143,7.605,9.235S11.8,18.467,7.605,18.467Zm2.779-8.529h0v0a.287.287,0,0,1,.036.138c.022.246.782,3.377,2.267,4.367,0,0,0,0,.009.015.05.049.1.1.137.1a.046.046,0,0,0,.022-.006c.03-.021.036-.065-.017-.227A31.456,31.456,0,0,1,11.823,3.41l.012-.064v0c.02-.106.034-.175-.01-.2a.042.042,0,0,0-.017,0c-.034,0-.083.038-.214.222A26.828,26.828,0,0,0,9.725,8.058a.367.367,0,0,1-.038.089l0,0a.346.346,0,0,1-.031-.087A26.2,26.2,0,0,0,7.911,3.512l-.032-.054c-.063-.11-.1-.159-.13-.159l-.014,0c-.033.013-.036.059-.011.183A21.367,21.367,0,0,1,5.993,14.07c-.094.134-.132.2-.1.24a.042.042,0,0,0,.029.011c.044,0,.136-.054.305-.18a5.88,5.88,0,0,0,1.881-3.314l.186-.58v0c0-.009.014-.027.019-.036a.6.6,0,0,1,.047.128c.023.071.155.581.338,1.292.24.94.54,2.1.594,2.266s.065.2.1.2.042-.03.058-.1v0l.024-.1c.018-.065.1-.429.2-.906l.065-.294,0-.01.031-.142c.207-.941.489-2.229.6-2.582l.012-.022ZM4.594,2.582a1.2,1.2,0,0,0-1.079.807.853.853,0,0,1-.542.351l-.023.008c-.219.084-.333.145-.333.5,0,.08,0,.166.014.264.043.47.069,1.4.069,2.478a34.278,34.278,0,0,1-.54,7.263l-.006.02a.419.419,0,0,0-.025.122.093.093,0,0,0,.03.08.078.078,0,0,0,.054.02.287.287,0,0,0,.141-.055c.332-.212,1.44-1.122,1.76-3.951l.009-.046c.012-.15.027-.336.238-.415l.049-.018A3.67,3.67,0,0,0,6.748,6.2C6.748,3.2,5.049,2.582,4.594,2.582Z" transform="translate(22.922 13.25)" fill="#fff"/>
      <path id="Fill_109" data-name="Fill 109" d="M.852,1.7A.851.851,0,1,1,1.7.852.852.852,0,0,1,.852,1.7Zm0-1.237a.386.386,0,1,0,.386.387A.387.387,0,0,0,.852.465Z" transform="translate(29.617 1.913)" fill="#fff"/>
      <g id="Group_113" data-name="Group 113" transform="translate(0 0)">
        <path id="Clip_112-2" data-name="Clip 112" d="M0,0H60.942V44.548H0Z" fill="none"/>
        <g id="Group_113-2" data-name="Group 113" clip-path="url(#clip-path-2)">
          <path id="Fill_111" data-name="Fill 111" d="M15.651,44.548h0l-.83-2.828H.129l.01-.02.018-.035,0,0L.191,41.6.2,41.583l.1-.195,0,0,.073-.142.293-.571.016-.031,0,0,.46-.9.033-.064,0,0L1.731,38.6l0-.008-.483-.837-.395-.683-.021-.036-.4-.7L.405,36.3.1,35.774l-.089-.153L0,35.6H5.451v0c.008-.02.015-.04.032-.086v0l.007-.018a.1.1,0,0,1,.007-.015,1.729,1.729,0,0,0-.21-.017H5.183l-.489-.03a.577.577,0,0,1-.431-.24.616.616,0,0,1-.1-.372,2.269,2.269,0,0,1,.08-.516,3.571,3.571,0,0,0,.07-.379,3.463,3.463,0,0,1,.071-.427v-.011l.013-.065a7,7,0,0,0,.146-2.106c-.054-.814,0-1.213.185-1.423a.6.6,0,0,1,.456-.185h.022l.122-.006.154-.016h.006a2.284,2.284,0,0,0,1.876-.965,3.123,3.123,0,0,0,.407-1.079c-2.141-.005-3-.837-3.341-1.534-.569-1.16-.141-2.792,1.175-4.478l.327-.438.137-.164a1.993,1.993,0,0,0,.51-1.334.331.331,0,0,0-.234-.227c-.345-.114-.526-.272-.555-.484-.04-.3.256-.506.472-.653l.012-.008.091-.066a1.49,1.49,0,0,1,.857-.263,1.653,1.653,0,0,1,.245.022l.173.043a.682.682,0,0,0,.134.032h0s.1-.036.227-.587a1.943,1.943,0,0,0,.047-.466,2.726,2.726,0,0,0-.472-1.547,2.409,2.409,0,0,0-1.6-1.034.641.641,0,0,0-.117.009c-.256.041-.429.239-.529.6A1.788,1.788,0,0,0,5.7,16.533c.2.158.378.333.325.549s-.289.27-.46.3l-.092.018a.635.635,0,0,1-.121.013,1.294,1.294,0,0,1-.175-.016l-.128-.006-.04,0A4.054,4.054,0,0,1,4.2,19.83l-.223.341c-.315.533-.581,1.054-.821,1.537l-.084.174c-.131.28-.293.629-.673.63a1.019,1.019,0,0,1-.167-.021.444.444,0,0,1-.291-.2.747.747,0,0,1-.006-.587l0-.028a1.293,1.293,0,0,0,.057-.346,5.9,5.9,0,0,0-.785-1.467v0l0,0,0,0-.027-.042-.064-.1a2.786,2.786,0,0,1-.2-1.7l.007-.075H.911c-.438-.075-.673-.226-.718-.461a.45.45,0,0,1-.006-.067A.416.416,0,0,1,.4,17.056a7.926,7.926,0,0,0,1.019-1.142,1.765,1.765,0,0,0-.609-.4L.8,15.512c-.308-.142-.552-.254-.552-.482a.144.144,0,0,1,0-.019c.01-.215.219-.283.357-.327a14.159,14.159,0,0,1,1.612-.449,4.362,4.362,0,0,0,1.7-.676h0l0,0,0,0,.015-.008.007,0h.015a6.316,6.316,0,0,1,1.883-.8,2.808,2.808,0,0,1,.52-.06c.986,0,1.887.649,2.753,1.984a5.239,5.239,0,0,1,.154,4.4l-.057.117c-.2.382-.216.462.013.622a.894.894,0,0,1,.3,1.407l-.351.551c-.227.349-.411.666-.5.831-.335.624-.514.7-.619.7a.286.286,0,0,1-.081-.014H7.958l-.026-.006a.382.382,0,0,1-.316-.344L7.537,22.6l-.1-.4c0-.027-.008-.05-.01-.067v-.011l0-.014,0-.018v-.024l-.006-.034c-.016.025-.2.255-.222.281l-.234.313-.233.32c-.747,1.018-1.264,1.863-.581,2.707a.968.968,0,0,0,.808.335,3.237,3.237,0,0,0,1.008-.2v-.016c0-.019,0-.037.006-.09a5.278,5.278,0,0,1,2.145-3.766l.323-.177,0,0,.006,0,0,0,0,0,0,0,0,0,0,0,0,0A7.954,7.954,0,0,0,12.1,20.65l0-.007c.013-.032.03-.075.071-.185l.005-.015.015-.04.005-.014,0-.011,0-.01,0-.012,0,0,0-.011c.052-.139.111-.3.181-.454v0l0,0v-.006l0,0v0l0,0,0,0,0,0v-.007l0,0v0l0,0v-.007l0,0v0a8.13,8.13,0,0,0,.467-1.269,4.1,4.1,0,0,0,.133-1.035,5.62,5.62,0,0,0-1-3.065L12,14.423l-.008-.009-.01-.01-.021-.022,0,.015v.069a.037.037,0,0,1,0,.006v0l0,.041v0a2.477,2.477,0,0,1-.047.317.7.7,0,0,1-.3.468.638.638,0,0,1-.274.067,1.585,1.585,0,0,1-.358-.066A2.188,2.188,0,0,1,9.447,13.77l-.008-.023a2.436,2.436,0,0,0-.1-.242.02.02,0,0,1-.009.014.614.614,0,0,1-.426.257H8.888A.531.531,0,0,1,8.52,13.6a4.522,4.522,0,0,1-.691-1.12,1.3,1.3,0,0,1-.073-.464,4.329,4.329,0,0,1,.106-.856v0l0-.008.021-.112.021-.11c.009-.031.019-.071.028-.11v-.005l0-.015c.005-.022.012-.048.017-.069l-.04.012-.046.013-.059.016-.068.018a2.412,2.412,0,0,1-.46.084.355.355,0,0,1-.257-.089.386.386,0,0,1-.075-.385v0l.009-.043c.209-1.121.119-1.677-.3-1.858s-.675-.464-.637-.707a.29.29,0,0,1,.262-.242A5.384,5.384,0,0,0,9.1,6.211l.175-.187.038-.039.02-.021,0,0,0,0,0,0,.009-.009.006-.007,0,0,0,0,.009-.009,0,0,0,0,0,0,0,0,0,0,0,0,0,0,0,0,0,0,0,0,0,0,0,0,0,0,0,0,0,0,0,0c.071-.072.19-.193.31-.3.035-.024.06-.043.083-.063-.183-.133-.353-.266-.518-.406A1.756,1.756,0,0,1,8.545,3.66a1.065,1.065,0,0,1,.6-.819,1.9,1.9,0,0,1,.809-.173,3.67,3.67,0,0,1,.93.144l-.133-.407,1.143-.367.239-.078.123.375a2.373,2.373,0,0,1,1.39-.947,1.692,1.692,0,0,1,.19-.015,1.034,1.034,0,0,1,.774.33,1.74,1.74,0,0,1,.261,1.622,8.6,8.6,0,0,1-.434,1.341.084.084,0,0,1,.028.005h0l.02-.009.029.007.008,0,.026.007h0l.022,0,.019,0h.047a1.04,1.04,0,0,1,.138-.012.359.359,0,0,1,.308.135.562.562,0,0,1,0,.554,3.153,3.153,0,0,0,.4.445c.139.121.605.58,1.071,1.041l.046.045.032.032.012.012.013.012.013.012.012.012.013.012.012.012.031.03.013.012.012.012.029.029.01.009.022.022.009.009.01.01.011.01c.391.385,1.205,1.185,1.478,1.417a1.094,1.094,0,0,1,.4,1.383.866.866,0,0,1-.694.445.484.484,0,0,1-.17-.024l-.2-.084-.007,0-.006,0-.007,0-.024-.012c.009.036.019.069.044.141a.836.836,0,0,1,.084.389.4.4,0,0,1-.137.33.969.969,0,0,1-.6.172,1.12,1.12,0,0,1-.539-.125,5.5,5.5,0,0,1-.668-.536l-.378-.317a3.069,3.069,0,0,0-1.175-.466.285.285,0,0,1-.043-.012h-.006l-.024-.008.012.015.015.02.221.279v0a5.39,5.39,0,0,0,1.773,1.611l.632.329.277.137a6.663,6.663,0,0,1,3.63,3.3,4.381,4.381,0,0,1,.247,2.249,13.545,13.545,0,0,1,2.012-3.8A10.835,10.835,0,0,1,25.32,11.7c.491-1.1.387-2.577-.215-3.031a.841.841,0,0,1-.5.161.849.849,0,0,1-.787-1.177,1.054,1.054,0,0,1-.268.039A.994.994,0,0,1,22.56,6.7a1.038,1.038,0,0,1,.131-.49,1.208,1.208,0,0,1-.208.021,1.188,1.188,0,0,1-.542-2.247,1.189,1.189,0,0,1,.347-2.327,1.28,1.28,0,0,1,.528.128,1.26,1.26,0,0,1-.074-.429A1.287,1.287,0,0,1,25.156.734.991.991,0,0,1,27.1.889a.835.835,0,0,1,.643-.3.854.854,0,0,1,.786.522h.194a.541.541,0,0,0,.584-.5c0-.314.286-.533.7-.533h1.031c.409,0,.7.219.7.533a.542.542,0,0,0,.584.5h.224A.854.854,0,0,1,33.32.589a.838.838,0,0,1,.645.3A.991.991,0,0,1,35.909.734a1.286,1.286,0,0,1,2.412.624,1.113,1.113,0,0,1-.075.429,1.188,1.188,0,1,1,.877,2.2,1.189,1.189,0,0,1-.54,2.247,1.7,1.7,0,0,1-.209-.021.906.906,0,0,1,.131.49.994.994,0,0,1-.993.993.867.867,0,0,1-.268-.039.766.766,0,0,1,.065.325.853.853,0,0,1-.852.852A.925.925,0,0,1,36,8.7a2.819,2.819,0,0,0-.277,3.028A11,11,0,0,1,38,13.961c.075.1.151.2.231.313l.033.009a2.35,2.35,0,0,0,.655.082c.049,0,.119,0,.207-.008v0a1.748,1.748,0,0,1,.892-1.8,6.207,6.207,0,0,1,2.293-.375l1.031-.06a3.113,3.113,0,0,0,3.014-2.17l.019-.057a1.256,1.256,0,0,0,.048-.438c0-.021,0-.04,0-.059v-.04c0-.013,0-.027,0-.04a9.673,9.673,0,0,1-1.385.312,2.47,2.47,0,0,0-1.317.443.558.558,0,0,1-.413.209h-.012a.687.687,0,0,1-.555-.35,6.529,6.529,0,0,0-.444-.557l0,0,0-.005,0,0V9.357l0,0-.009-.01,0,0-.1-.128a.475.475,0,0,1-.022-.42.909.909,0,0,1,.7-.512l.363-.079c.4-.079.428-.091.439-.342a.149.149,0,0,0-.071-.128,1.393,1.393,0,0,0-.786-.18,1.616,1.616,0,0,0-.4.043.8.8,0,0,1-.206.037.457.457,0,0,1-.209-.049.744.744,0,0,1-.332-.483v0a.817.817,0,0,1,.153-.878c.063-.054.019-.182-.085-.4-.04-.092-.059-.135-.06-.136a.88.88,0,0,1-.037-.73.725.725,0,0,1,.528-.34,3.329,3.329,0,0,1,.586-.055c.172,0,.29.008.368.013h.028l.037,0h.018c.068,0,.155.008.23.008a.819.819,0,0,0,.194-.015,1.628,1.628,0,0,0,.437-.177l.031-.016.022-.011h0a1.685,1.685,0,0,1,.726-.254c.034,0,.133-.006.3-.006.229,0,.5.006.814.013l.084,0,.586.011a4.285,4.285,0,0,0,1.858-.739.77.77,0,0,1,.515-.267H49a.474.474,0,0,1,.36.239,2.382,2.382,0,0,1,.226.765v.005l.006.031V4.17a2.637,2.637,0,0,0,.228.771,3.174,3.174,0,0,0,.546.632l0,0,0,0,.009.009.012.012.051.049,0,0,0,0,0,0,0,0,0,0,0,0,0,0a4.362,4.362,0,0,1,.394.424,3.724,3.724,0,0,1,.406.8v0l0,.005,0,.007,0,0,0,0v0l0,.005.005.013.013.031,0,0a3.726,3.726,0,0,0,.556,1.054,2.218,2.218,0,0,0,1.287.744.6.6,0,0,0,.3-.068l-.018.007a.4.4,0,0,1,.143-.04.287.287,0,0,1,.219.107.484.484,0,0,1,.092.31.747.747,0,0,1-.182.482l-.27.243-.035.031c-.132.114-.353.306-.371.4a.916.916,0,0,0,.125.408l.011.016a.684.684,0,0,1,.128.386.95.95,0,0,1-.308.635c-.209.221-.264.3-.264.388a.421.421,0,0,0,.029.131V12.2l0,0,0,.012.01.032a1.4,1.4,0,0,1,.091.431.458.458,0,0,1-.251.431l-.076.042-.025.014a1.339,1.339,0,0,1-.392.165l-.054.011c-.271.061-.427.149-.427.414v.053l.013.165c.006.079.013.2.013.294,0,.274-.069.444-.43.556l-.165.041c-.274.065-.439.105-.466.621l-.013.338c-.022.679-.044,1.381-.67,1.458a1.1,1.1,0,0,1-.372-.022,13.072,13.072,0,0,1,1.421,4.821c.1,1.705.5,2.085.765,2.336l.02.02.019.019,0,0,0,0a1.268,1.268,0,0,1,.175.2,5.027,5.027,0,0,1,.5,1.849,1.35,1.35,0,0,0,1.434.844,1.841,1.841,0,0,0,1.676-1.844,1.357,1.357,0,0,0-1.316-1.3.91.91,0,0,0-.13-.006,1.5,1.5,0,0,0-.823.249.365.365,0,0,1-.169.057A.282.282,0,0,1,53,24.5c-.133-.061-.216-.216-.246-.462a2.73,2.73,0,0,1-.016-.308,1.543,1.543,0,0,1,.768-1.515.056.056,0,0,0,.016-.007.262.262,0,0,1-.048-.047c-.472-.648-1.36-2.148-1.609-2.607A5.064,5.064,0,0,1,51.69,15.1a3.547,3.547,0,0,1,3.068-1.864,2.833,2.833,0,0,1,1.019.189l.025.01a3.523,3.523,0,0,0,.925.3,1.077,1.077,0,0,0,.132.008,3.585,3.585,0,0,0,.832-.147l.011,0a2.874,2.874,0,0,1,.681-.13.469.469,0,0,1,.107.007,5.2,5.2,0,0,1,.967.32,3.8,3.8,0,0,0,.446.164h.249l.086,0a.688.688,0,0,1,.641.261.552.552,0,0,1,.064.238,1.124,1.124,0,0,1-.2.568,1.109,1.109,0,0,0-.137.506.532.532,0,0,0,.11.344.678.678,0,0,1,.17.431.45.45,0,0,1-.02.146.814.814,0,0,1-.564.516,1.525,1.525,0,0,1-.305.068,3.021,3.021,0,0,1,.211,1.025,1.32,1.32,0,0,1-.11.568,4.858,4.858,0,0,0-.459,1.34c0,.025-.006.053-.013.1-.04.283-.1.71.416.847.2.053.312.136.321.247a.4.4,0,0,1-.224.321c-.021.009-.057.028-.113.058l0,0L60,21.541a3.834,3.834,0,0,1-1.212.469c-.047,0-.081.005-.105.005a1.073,1.073,0,0,1-.72-.281,4.2,4.2,0,0,1-.8-2.707v-.014a4.192,4.192,0,0,1-1.4-2.51,1.655,1.655,0,0,1,.47-1.149l.018-.021.023-.013a.476.476,0,0,0,.069-.06.8.8,0,0,0-.191-.109l0,0,0,0-.115-.061a2.783,2.783,0,0,0-1.033-.2,1.91,1.91,0,0,0-.845.179,2.049,2.049,0,0,0-1.011,1.644,3.006,3.006,0,0,0,1.1,3.008c.1-.133.2-.253.3-.365a.66.66,0,0,1,.436-.273.182.182,0,0,1,.081.011c.21.055.258.267.293.422v.005l.028.117.055.172v0c.027.094.167.57.242.75a.328.328,0,0,0,.165.18.125.125,0,0,0,.05.007.359.359,0,0,0,.181-.065.638.638,0,0,1,.327-.108.385.385,0,0,1,.177.042.626.626,0,0,1,.275.533l0,.013,0,.027c.013.11.184.876.269,1.191s.145.421.244.421a.159.159,0,0,0,.063-.012,2.283,2.283,0,0,1,.738-.163.6.6,0,0,1,.56.271c.421.706-.907,2.436-1.221,2.715a4.251,4.251,0,0,0-.562.905l-.026.056a5.54,5.54,0,0,1-.745,1.348,3.091,3.091,0,0,1-2.431,1.223,3.954,3.954,0,0,1-1.257-.227,6.359,6.359,0,0,0,.868.887l.111.084c.334.25,1.03.769.955,1.422-.028.205-.034,1.25-.034,1.519a5.649,5.649,0,0,0,.14.829l.015.076,0,.019v0l0,.008,0,.016v.005l0,.008v.009l0,.009,0,.011v.005l0,.011v0l0,.012v.006c.056.283.089.482.1.591a5.783,5.783,0,0,1-.068,1.149h6.25v0l0,0,0,0,0,0-.006.01,0,.008-.019.032-.008.014-.007.013,0,0-.009.015-.039.067-.135.233-.128.222L60.4,36.4l-.375.65-.283.491,0,.006-.066.115-.17.295-.005.009-.077.133-.09.157-.021.036-.182.316c.109.218,1.157,2.257,1.587,3.091l.011.022,0,.005H46.269l-.826,2.824a45.191,45.191,0,0,0-14.889-2.606h-.027a44.938,44.938,0,0,0-14.877,2.611Zm14.876-9.631a49.967,49.967,0,0,0-16.375,2.857l1.8,6.178a45.731,45.731,0,0,1,14.573-2.482h.027A45.83,45.83,0,0,1,45.127,43.95l1.819-6.169a50.043,50.043,0,0,0-16.391-2.863Zm15.731,1.151h0c-.036.027-.618.491-.867.69.654.207,1.3.426,1.92.653l.2.078-1.1,3.762H59.967l-.366-.712,0-.008-.019-.036-.332-.647-.008-.015-.211-.412-.171-.333,0-.006-.013-.025-.239-.464s.136-.237.38-.66l.274-.477,0-.006.228-.4.005-.009.175-.3.01-.018.111-.192.266-.462H54.524a1.763,1.763,0,0,1-.155.452.864.864,0,0,1-.652.426.962.962,0,0,1-.155.012.828.828,0,0,1-.579-.208l0,0-.2.141a.805.805,0,0,1-.429.129,1.031,1.031,0,0,1-.752-.388.833.833,0,0,1-.17-.351,1.184,1.184,0,0,1-.391.078.438.438,0,0,1-.274-.078,1.022,1.022,0,0,1-.213-.209H46.257Zm-45.451,0c.166.285.588,1.017.961,1.663l.006.01.218.378.113.2.059.1,0,0,.077.133.014.025,0,.007,0,0c-.024.047-1.116,2.17-1.368,2.661H14.684l-1.107-3.768.193-.072c.647-.236,1.3-.458,1.949-.662l-.145-.107-.043-.032-.151-.112-.128-.094-.117-.087-.01-.008-.011-.008-.066-.049-.095-.07-.065-.048,0,0-.029-.022-.023-.017-.02-.015,0,0-.012-.009H8.144c-.19.671-.812.691-1.36.708l-.1,0c-.022,0-.054,0-.105,0a3.832,3.832,0,0,1-.684-.057.656.656,0,0,1-.49-.3.58.58,0,0,1-.075-.294.1.1,0,0,1,0-.01v-.041a.094.094,0,0,0,0-.009Zm43.92-4.61a6.914,6.914,0,0,0-1.786.489,3.335,3.335,0,0,0-.979,1.1l-.281.4a.065.065,0,0,1-.011.012l-.007.007a3.585,3.585,0,0,1-.6,1.885,1.872,1.872,0,0,1-.234.21c1.342.281,2.7.626,4.025,1.025L46.1,35.6H50.4c0-.011,0-.021,0-.029V35.5a.037.037,0,0,1,0-.006,2.741,2.741,0,0,1,1.344-1.746,1.17,1.17,0,0,0,.483-1.217,1.017,1.017,0,0,0-.405-.711,7.4,7.4,0,0,0-1.208-.2,4.993,4.993,0,0,1-2.47-1.135,5.887,5.887,0,0,1-1.678-2.4.217.217,0,0,1-.073.08.158.158,0,0,1-.025.016l-.014.008a.991.991,0,0,0-.074,1.354l.061.111a.743.743,0,0,0,.126.151.818.818,0,0,1,.237,1c-.234.589-1.095.657-1.722.657h-.144ZM7.054,31.32a.989.989,0,0,0-.513.115c-.006.035-.017.086-.033.161v.011a6.083,6.083,0,0,0-.13.685,1.179,1.179,0,0,0-.009.174,1.947,1.947,0,0,0,.172.849c.056.056.2.183.362.317l.037.032.011.009.012.01.016.013,0,0,0,0,0,0,0,0,0,0,.012.01.145.123.441.373.066.058A1.413,1.413,0,0,1,8.2,35.568V35.6h6.749l1.309.983c1.279-.387,2.619-.729,3.982-1.016-.062-.049-.267-.211-.271-.212a2.193,2.193,0,0,1-.361-.671l-.208-.047-.187-.025h-.009c-.423-.056-1.062-.14-1.141-.744,0-.016-.019-.155-.038-.249l-.044.006a.9.9,0,0,1-.245.032,2.236,2.236,0,0,1-1-.353,3.681,3.681,0,0,1-.711-.514l-.015-.013,0,0a2,2,0,0,0-.532-.369l-.6-.231a7.981,7.981,0,0,1-1.1-.454l-.054-.028-.009-.005c-.364-.194-.862-.459-.964-.941a.755.755,0,0,1-.02-.177,1.259,1.259,0,0,1,.3-.744,4.012,4.012,0,0,1,.772-.858,1.6,1.6,0,0,0-.179.021,2.839,2.839,0,0,1-.463.04,3.22,3.22,0,0,1-1.381-.364l-.05-.022a3.467,3.467,0,0,1-.451.871,2.516,2.516,0,0,1-1.645.815c-.033,0-.062,0-.092,0a1.361,1.361,0,0,1-.856.934,1.983,1.983,0,0,1-.737.118c-.216,0-.486-.026-.746-.053C7.141,31.322,7.092,31.32,7.054,31.32Zm44.814,4.752h0a.313.313,0,0,1,0,.061.272.272,0,0,0,.087.194.573.573,0,0,0,.39.221.344.344,0,0,0,.184-.056l.1-.069c.037-.063.07-.122.1-.171v0c.1-.175.174-.313.258-.313s.164.128.266.415l.06.063a.37.37,0,0,0,.251.075.61.61,0,0,0,.089-.007.415.415,0,0,0,.307-.189,5.322,5.322,0,0,0,.253-1.792c-.02-.191-.106-.624-.132-.753a6.839,6.839,0,0,1-.148-.919c0-.052,0-1.286.035-1.573.047-.388-.525-.813-.769-.994l0,0-.125-.092a10.5,10.5,0,0,1-1.783-2.121l0-.005v0l-.122-.177c-.566-.807-.6-1.027-.568-1.086a.049.049,0,0,1,.048-.026c.153,0,.614.407.914.865l.047.07,0,.007.005.008,0,0c.059.089.129.194.21.311A3.487,3.487,0,0,0,51.98,26.6a1.248,1.248,0,0,1-.04-.308.036.036,0,0,1,0-.005v-.01a.062.062,0,0,0,0-.012,4.194,4.194,0,0,0-.4-1.345.668.668,0,0,0-.122-.139l0,0-.023-.023a2.661,2.661,0,0,1-.815-1.774l-.089-.875a14.008,14.008,0,0,0-1.63-5.16l-.08-.167-.073-.152A.28.28,0,0,1,48.7,16.6v0a.2.2,0,0,0-.011-.028l0,.007,0,.009-.009.018-.009.017-.005.011,0,.009c-.017.034-.036.072-.055.114a1.9,1.9,0,0,1-.866.993l-.066.038-.056.024a.562.562,0,0,1-.293.084.512.512,0,0,1-.207-.043.826.826,0,0,1-.444-.646c-.083-.367-.148-.876-.179-1.147a2.264,2.264,0,0,0-.266.15c-.259.174-1.559.722-1.57.726a1.136,1.136,0,0,1-.4.069.789.789,0,0,1-.547-.182.5.5,0,0,1-.148-.376l-.429.026-.127.009h-.016l-.029,0-.02.029c-.263.4-.66,1-.2,2.59.033-.026.062-.051.088-.075a5.231,5.231,0,0,1,1.443-.686l.057-.021.074-.028.033-.012.078-.029a1.126,1.126,0,0,1,.271-.053c.032,0,.052.007.055.019s-.056.071-.16.12a7.831,7.831,0,0,0-1.521,1.02,4.058,4.058,0,0,1-1.345.719l-.074.023h0l-.044.014h-.007a2.691,2.691,0,0,0-.993.445c-.068.069-.159.152-.232.216l0,0c-.064.058-.132.119-.188.174a2.078,2.078,0,0,0-.641.775l-.011.034,0,0c-.112.349-.185.58-.135.667s.109.14.177.14l.028,0a1.685,1.685,0,0,1,.38-.08.138.138,0,0,1,.115.042c.067.081.031.281-.057.725-.04.174.133.253.189.279a1.279,1.279,0,0,0,.34.071.157.157,0,0,0,.126-.041c.109-.133.19-.216.254-.216s.136.116.209.316a.945.945,0,0,0,.1.133.654.654,0,0,0,.43.223h.027c.143-.014.33-.362.38-.858a.821.821,0,0,1,.608-.794l.129-.054.262-.13a6.142,6.142,0,0,0,.938-.517,9.544,9.544,0,0,0,1.128-.825l-.005.01a.243.243,0,0,1,.2-.107.235.235,0,0,1,.122.034.229.229,0,0,1,.077.313,1.071,1.071,0,0,1-.154.163.538.538,0,0,0,.264.228.368.368,0,0,0,.086.009.71.71,0,0,0,.508-.2,2.528,2.528,0,0,0,.236-.476v0l.135-.293c.159-.28,1.038-.522,1.3-.561a.824.824,0,0,1,.108-.009c.048,0,.077.008.08.024s-.044.059-.136.1a6.308,6.308,0,0,0-.948.684l-.082.186,0,.01L47,21l-.011.025-.014.033v.005a2.773,2.773,0,0,1-.259.5,1.127,1.127,0,0,1-.892.4.857.857,0,0,1-.2-.021,1,1,0,0,1-.522-.391c-.247.182-.523.365-.655.454l-.007,0h0l-.022.014-.06.041c-.023.015-.05.03-.077.046h0l-.01.006,0,0-.06.034a3.748,3.748,0,0,0,1.518.591,5.1,5.1,0,0,1,1.735.742,4.017,4.017,0,0,1,.917,1c.247.342.379.577.353.629a.021.021,0,0,1-.02.011c-.066,0-.269-.165-.587-.477a8.285,8.285,0,0,0-.773-.664c0,.046,0,.085,0,.124a2.289,2.289,0,0,1-.24,1.051,6.331,6.331,0,0,0-.425,1.99,1.027,1.027,0,0,0,.024.257,5.831,5.831,0,0,0,1.7,2.719A4.573,4.573,0,0,0,50.64,31.16a7.424,7.424,0,0,1,1.318.22,1.383,1.383,0,0,1,.719,1.114c.007.082.013.161.013.238a1.521,1.521,0,0,1-.721,1.419,2.438,2.438,0,0,0-1.112,1.342c0,.241.048.3.167.4a.06.06,0,0,0,.034.008.836.836,0,0,0,.3-.094l0,0a.516.516,0,0,1,.085-.047l.113-.063a.986.986,0,0,1,.321-.149.049.049,0,0,1,.041.017c.041.049.015.207-.038.506ZM6.014,35.5h0a.636.636,0,0,1-.034.146.82.82,0,0,1-.051.1c-.069.125-.173.313-.069.382a1.121,1.121,0,0,0,.724.183l.085,0,.1,0c.721-.026.95-.062.969-.66.018-.687-.184-.858-.38-1.023l-.074-.062L6.85,34.2l-.07-.059-.006-.005-.013-.011-.01-.009c-.191-.16-.453-.378-.544-.473a2.229,2.229,0,0,1-.293-1.411,6.694,6.694,0,0,1,.139-.731l.041-.188c.051-.315.541-.458.974-.458a1.93,1.93,0,0,1,.194.01,6.112,6.112,0,0,0,.68.049,1.574,1.574,0,0,0,.576-.085.9.9,0,0,0,.58-.63,1.139,1.139,0,0,0-.395-.1.432.432,0,0,0-.235.074,1.3,1.3,0,0,0-.115.075l0,0a.521.521,0,0,1-.388.106c-.1,0-.223-.006-.374-.02a.772.772,0,0,1-.413-.181.1.1,0,0,1-.029-.075c.006-.084.2-.1.363-.1.11,0,.209.008.237.011s.062,0,.089,0A.29.29,0,0,0,8.1,29.88a.475.475,0,0,1,.128-.111.938.938,0,0,1,.474-.134,1.779,1.779,0,0,1,.709.191.534.534,0,0,0,.221.041,2.063,2.063,0,0,0,1.29-.647,4.734,4.734,0,0,0,.489-1.03,15.255,15.255,0,0,1,.694-1.552,4.183,4.183,0,0,1,3.517-2.409,3.918,3.918,0,0,0,2.187-1.067,9.157,9.157,0,0,0,1.5-1.971c.093-.176.175-.345.234-.467a.5.5,0,0,0-.13-.056c-2.006-.626-2.539-.775-2.723-.807a2.837,2.837,0,0,1-1.245-.483.235.235,0,0,1,0-.327.219.219,0,0,1,.158-.067.226.226,0,0,1,.159.067,2.748,2.748,0,0,0,1,.351c.319.053,1.229.32,2.783.819.818.261.761.68.715,1.017l0,.019,0,.013c-.005.038-.008.064-.011.092l-.027.477c-.014.227-.013.42-.011.589v.034a1.548,1.548,0,0,1-.106.768l0,0a1.266,1.266,0,0,1-.754.74.806.806,0,0,1-.268.05.845.845,0,0,1-.258-.046l-.013,0a.368.368,0,0,0-.125-.03.3.3,0,0,0-.1.022c-.341.123-.339.15-.309.608l.016.336c.008.2.051.323.129.373a.239.239,0,0,0,.131.034.466.466,0,0,0,.185-.041c.085-.041.255-.1.548-.2l.014,0,.014,0h0l.12-.042h0l.008,0h.009a9.825,9.825,0,0,0,1.173-.457.332.332,0,0,0,.157-.335,2.406,2.406,0,0,0-.02-.273l-.021-.244c0-.092-.009-.211-.019-.337v-.03a8.418,8.418,0,0,1-.03-1.223,11.41,11.41,0,0,1,.185-1.513c.055-.26.114-.554.14-.758a1.633,1.633,0,0,0,.019-.23c0-.251-.092-.338-.317-.528-.4-.341-1.317-.948-2.2-1.535h0l-.018-.012-.055-.037a16.258,16.258,0,0,1-2.333-1.678c-.012-.017-.023-.03-.034-.042l0-.006,0,0,0,0,0-.006a.747.747,0,0,1-.5.153,3.063,3.063,0,0,1-1.043-.239,1.55,1.55,0,0,1-.546-.29.566.566,0,0,1-.531.309c-.027,0-.058,0-.1-.005a.994.994,0,0,1-.174-.034,5.139,5.139,0,0,1,.178,3.014,9.148,9.148,0,0,1-.513,1.39v0l0,.008-.008.017v0l-.027.059-.011.026-.02.044-.01.023,0,.008,0,0,0,0a5.664,5.664,0,0,0-.235.581.785.785,0,0,1-.394.427l0,0a1.071,1.071,0,0,0-.094.059l-.31.189-.041.025-.032.02,0,0-.039.024,0,0-.02.013-.01.006-.028.017,0,0c-.277.172-.591.367-.867.518l-.318.177a4.816,4.816,0,0,0-1.912,3.384c-.1,1.8-.208,2.521-.668,3.255a2.752,2.752,0,0,1-2.233,1.182l-.14.014-.156.014c-.088.005-.142.01-.159.028-.032.042-.085.173-.085.583,0,.116.007.275.021.5.014.21.021.422.021.646a6.844,6.844,0,0,1-.17,1.558l-.005.026a3.986,3.986,0,0,0-.059.451,2.915,2.915,0,0,1-.063.453l0,.01c-.033.145-.095.413-.052.475a.131.131,0,0,0,.081.027l.434.025h.034c.1,0,.2,0,.293.015l0,0H5.59c.4,0,.556.006.587.056.018.029,0,.075-.037.144l0,0,0,0v.006a1.486,1.486,0,0,0-.119.318ZM21.9,29.281h0l-.019.016A5.906,5.906,0,0,0,20,32.228a2.692,2.692,0,0,1,.782,1.986.659.659,0,0,1-.273.466.632.632,0,0,1-.354.1,1.41,1.41,0,0,0,.176.281,2.039,2.039,0,0,0,.509.387c1.339-.266,2.711-.483,4.075-.647a2.053,2.053,0,0,0-1.057-.485h-.032c-.14.008-.319.035-.476.059h0l-.016,0-.013,0h-.007l-.065.009h-.02a6.088,6.088,0,0,1-.955.1,1.166,1.166,0,0,1-.761-.209.712.712,0,0,1-.252-.554,4.164,4.164,0,0,1,1.4-3.229,12.3,12.3,0,0,1-.763-1.22ZM37.17,34.311a1.872,1.872,0,0,0-1.025.483c1.375.165,2.735.38,4.042.638a2.864,2.864,0,0,0,.517-.375,2.8,2.8,0,0,0,.458-1.29.536.536,0,0,1-.08.006.4.4,0,0,1-.117-.014.687.687,0,0,1-.522-.483l-.017-.067-.015-.055,0-.013v0l0-.015c-.011-.042-.026-.1-.04-.134a.7.7,0,0,1-.188.024.663.663,0,0,1-.448-.173,3.445,3.445,0,0,1,.052.892.71.71,0,0,1-.252.554,1.167,1.167,0,0,1-.76.209,5.884,5.884,0,0,1-.97-.106h-.007l-.043-.007H37.73c-.17-.027-.363-.057-.524-.066Zm-13.284-.467a2.3,2.3,0,0,1,1.526.724l.041.036.044.044.014.014.062.062c.846-.092,1.75-.163,2.686-.212l-.2,0a10.082,10.082,0,0,1-5.112-3.633l0,0a3.77,3.77,0,0,0-1.219,2.823.257.257,0,0,0,.083.219.734.734,0,0,0,.457.1,5.936,5.936,0,0,0,.874-.093l.036-.006a5.927,5.927,0,0,1,.629-.084C23.819,33.844,23.844,33.843,23.886,33.843Zm8.917.666h0c.766.037,1.637.1,2.662.208l0,0,.006-.006c.043-.043.1-.1.146-.14a2.3,2.3,0,0,1,1.529-.724c.042,0,.067,0,.086,0a5.719,5.719,0,0,1,.627.084l.034.005h.008a5.622,5.622,0,0,0,.868.092.728.728,0,0,0,.456-.1.266.266,0,0,0,.086-.219,3.8,3.8,0,0,0-1.236-2.838,10.09,10.09,0,0,1-5.123,3.642Zm-2.3-24.03a8.948,8.948,0,0,0-7.128,3.764,13.319,13.319,0,0,0-2.231,4.606,1.057,1.057,0,0,1,.321,1.052c-.026.21-.08.475-.148.8a10.474,10.474,0,0,0-.176,1.444,7.9,7.9,0,0,0,.028,1.2c.011.136.021.254.021.363l.019.184a.987.987,0,0,1-.33,1.047C21.844,30.42,25.891,34.4,30.5,34.4c4.914,0,9.108-4.465,9.754-10.386L40.227,24h-.012c-.015,0-.029-.008-.043-.014-.44-.178-.532-.442-.532-.632a.227.227,0,0,1,.006-.071c0-.007,0-.014,0-.02a.082.082,0,0,1,0-.009v-.009c0-.1-.029-.216-.065-.22a.7.7,0,0,1-.52-.366.608.608,0,0,1-.076-.3,2.583,2.583,0,0,1,.173-.74v0l.01-.035a2.4,2.4,0,0,1,.768-.975l.248-.233a13.56,13.56,0,0,0-2.555-6.133A8.95,8.95,0,0,0,30.5,10.479ZM18.271,32.971c.061,0,.1.107.2.519a2.922,2.922,0,0,1,.053.318c.032.235.317.289.749.344l.2.029.146.032.171.04a1.691,1.691,0,0,0,.346.059.234.234,0,0,0,.111-.023.243.243,0,0,0,.068-.155.829.829,0,0,0,.009-.107,2.825,2.825,0,0,0-.541-1.379l-.237-.06a2.048,2.048,0,0,1-.662-.385,2.5,2.5,0,0,0-1.23-.587,7.272,7.272,0,0,1-1.809-.624.936.936,0,0,1-.569-.551.85.85,0,0,1-.023-.174.929.929,0,0,1,.189-.526,5.528,5.528,0,0,1,.852-.56l0,0,.005,0,.006,0h0l.005,0c.149-.088.216-.128.244-.147.593-.317,1.562-1.348,1.508-1.692a4.394,4.394,0,0,0-.415-.823l0,0,0,0v0l0,0,0-.006v0l0,0-.223-.389a.658.658,0,0,0-.617-.35,1.126,1.126,0,0,0-.266.032,11.973,11.973,0,0,1-2.314.237,4.7,4.7,0,0,1-1.047-.1l-.132.147a4.666,4.666,0,0,0-.519.793,14.355,14.355,0,0,0-.615,1.358l.064.026h0a2.745,2.745,0,0,0,1.2.327,2.478,2.478,0,0,0,.377-.033,1.959,1.959,0,0,1,.322-.03c.308,0,.5.105.569.312s-.235.481-.323.523a.241.241,0,0,1-.039.032l0,0a3.356,3.356,0,0,0-.671.743.676.676,0,0,0-.194.536c.061.277.47.492.741.634l.051.027a8.368,8.368,0,0,0,1.04.427l.623.237a2.5,2.5,0,0,1,.649.443l.022.019a3.132,3.132,0,0,0,.625.456,1.867,1.867,0,0,0,.779.3.473.473,0,0,0,.13-.017l.017,0,.007,0,.009,0,.014,0,.008,0,.007,0,.015,0a.785.785,0,0,0,.209-.12l0,0,0,0C18.211,33,18.243,32.971,18.271,32.971Zm22.354-.619c.083,0,.1.092.123.245l0,.01c.008.052.017.108.031.168l.114.381a.236.236,0,0,0,.164.146.118.118,0,0,0,.037,0,.194.194,0,0,0,.106-.034,4.766,4.766,0,0,0,.419-.544,3.274,3.274,0,0,1,1.139-1.208,6.876,6.876,0,0,1,1.968-.527l.1,0h.087c.3,0,1.194,0,1.34-.363.1-.258.024-.338-.132-.5l-.017-.017a.981.981,0,0,1-.2-.252l-.048-.085a1.536,1.536,0,0,1-.156-1.494,2.888,2.888,0,0,1-1.024-.546l0,0-.028-.021-.079-.058-.035-.024c-.435-.41-.472-.544-.455-.588.008-.019.027-.028.058-.028a1.593,1.593,0,0,1,.667.353l.034.025h0a2.1,2.1,0,0,0,1.007.462.461.461,0,0,0,.207-.042,2.294,2.294,0,0,1,.229-.2.2.2,0,0,0-.007-.025l0-.006,0-.009,0-.006v0a.474.474,0,0,1-.013-.049,5.541,5.541,0,0,1,.441-2.594,1.372,1.372,0,0,0,.1-.262,8.676,8.676,0,0,1-1.977.256,4.29,4.29,0,0,1-1.4-.2l-.127-.054a.889.889,0,0,0-.326-.1.286.286,0,0,0-.092.017.993.993,0,0,0-.4.536,2.577,2.577,0,0,0,.053,2.462,5.352,5.352,0,0,0,.523.623l.008.008,0,0,.009.009,0,0,0,0,0,0,.026.028.007.008a2.578,2.578,0,0,1,.686.992.666.666,0,0,1-.1.608,1.635,1.635,0,0,1-1.25.423l-.387-.012c-.18-.008-.379-.015-.618-.015a6.914,6.914,0,0,0-.764.036l-.106.014h0a3.019,3.019,0,0,0-1.031.3c-.312.171-.43.394-.339.645a.465.465,0,0,0,.307.313h.009a.531.531,0,0,1,.106-.014l0,0,.019,0c.09-.009.192-.018.266-.018.11,0,.171.02.2.065.04.067,0,.2-.118.417l0,.005-.007.013,0,.008-.011.022-.014.028-.024.047-.015.028c-.008.016-.015.03-.022.043-.052.1.059.219.18.3a.2.2,0,0,0,.108.03.31.31,0,0,0,.133-.03A.7.7,0,0,1,40.625,32.352ZM16.807,25.266a1.123,1.123,0,0,1,1.027.593l.22.382a3.921,3.921,0,0,1,.487,1.015c.065.4-.318.915-.651,1.273a5.306,5.306,0,0,1-1.1.913l-.212.112-.006,0,0,0a3.213,3.213,0,0,0-.733.444.407.407,0,0,0-.106.308c.026.086.137.177.31.256a7.366,7.366,0,0,0,1.686.588,2.971,2.971,0,0,1,1.462.69,1.557,1.557,0,0,0,.36.238,6.2,6.2,0,0,1,2.007-3.121l.116-.112a13.863,13.863,0,0,1-1.226-3.7c-.239.1-.54.2-.738.271l-.015.005-.015.005-.022.008-.007,0-.19.066c-.276.092-.471.162-.535.193a.931.931,0,0,1-.368.083.7.7,0,0,1-.365-.1.981.981,0,0,1-.227-.249,1.162,1.162,0,0,1-.12-.51l-.017-.317c-.033-.487-.056-.839.612-1.084a.691.691,0,0,1,.247-.045.737.737,0,0,1,.248.044l.017.005.016.005a.383.383,0,0,0,.12.026.318.318,0,0,0,.114-.025c.283-.1.331-.192.51-.524v0a2.278,2.278,0,0,0,.059-.936V22.05c-.006-.106-.017-.3-.01-.432l.01-.137c0-.016,0-.031,0-.046v-.016c0-.042.006-.074.007-.11l0,.007,0,.009,0,0,0,0,0,.007,0,.006,0,.007,0,.009a.543.543,0,0,1-.026.048,9.471,9.471,0,0,1-1.607,2.1,4.346,4.346,0,0,1-2.459,1.183,3.645,3.645,0,0,0-2.071.812,5.223,5.223,0,0,0,.61.03,12.205,12.205,0,0,0,2.23-.224A1.574,1.574,0,0,1,16.807,25.266ZM39.12,29.261a12.576,12.576,0,0,1-.761,1.223l0,0,.009.009.011.012.009.01,0,0,0,0c.128.133.244.259.343.376a1.074,1.074,0,0,1,.579-.683A2.766,2.766,0,0,1,39.848,30c-.217-.249-.433-.456-.607-.623l-.008-.008-.006-.006h0l-.006-.005,0,0-.007-.007-.006-.006-.005-.005-.038-.036-.037-.037Zm1.8-5.238a.681.681,0,0,1-.2.047,14.222,14.222,0,0,1-1.375,4.761l.13.127h0l0,0h.008a9.757,9.757,0,0,1,.869.9,6.7,6.7,0,0,1,1.057-.074c.26,0,.468.008.606.013l.062,0,.369.012a1.24,1.24,0,0,0,.881-.239.22.22,0,0,0,.023-.2,2.261,2.261,0,0,0-.578-.8l-.013-.015,0,0h0a6.1,6.1,0,0,1-.613-.725,3.035,3.035,0,0,1-.1-2.91,1.339,1.339,0,0,1,.659-.789.662.662,0,0,1,.262-.049,1.269,1.269,0,0,1,.509.136h0l0,0,.1.043a3.783,3.783,0,0,0,1.238.179,8.661,8.661,0,0,0,2.059-.292,1.725,1.725,0,0,0-.059-.524,4.675,4.675,0,0,0-1.2-.443,3.873,3.873,0,0,1-1.844-.81l-.006-.007a1.439,1.439,0,0,0-.235.131h0a1.011,1.011,0,0,1-.171.087l-.258.125-.167.073c-.2.077-.289.112-.317.4-.053.581-.372,1.236-.794,1.28a.464.464,0,0,1-.07,0,1.12,1.12,0,0,1-.795-.394l0,0C40.948,24.068,40.932,24.046,40.917,24.023Zm11.519,3.316a3.217,3.217,0,0,1-.227.968l.054.023a3.847,3.847,0,0,0,1.49.36,2.652,2.652,0,0,0,2.074-1.065,5.223,5.223,0,0,0,.675-1.231l.024-.058a4.361,4.361,0,0,1,.683-1.069c.406-.367,1.306-1.823,1.124-2.125-.01-.02-.076-.04-.184-.04a1.778,1.778,0,0,0-.655.154c-.1.04-.183.077-.249.106l-.014.006-.016.007a.786.786,0,0,1-.237.085c-.072,0-.086-.078-.121-.265-.019-.1-.048-.261-.1-.469-.125-.489-.338-1.332-.352-1.479l0-.032a1.062,1.062,0,0,0-.025-.158l-.005,0h-.005a.2.2,0,0,0-.033.019l-.194.079a1.664,1.664,0,0,1-.527.178c-.142,0-.184-.117-.275-.375l0-.006,0-.005c-.021-.06-.045-.128-.074-.2-.064-.172-.182-.528-.262-.8l-.05-.167,0-.01c-.007-.028-.023-.09-.03-.117v0l0,0,0,0,0,0v0l0,0a2.484,2.484,0,0,0-.62,1.027c-.013.048-.024.09-.034.132l-.007.029,0,.014c-.019.08-.039.161-.069.261a3.47,3.47,0,0,0-.164.737.173.173,0,0,0,.021.1l.009.009,0,0,.008.009a.231.231,0,0,0,.037.025l0,0a.256.256,0,0,1,.031.021l.022.016c.213.152.331.236.319.3s-.186.119-.543.213c-.046.013-.119.04-.184.065l-.047.018c-.413.167-.475.756-.475,1.091,0,.091.006.166.008.194v.029a1.966,1.966,0,0,1,.882-.215c.056,0,.114,0,.174.008a1.8,1.8,0,0,1,1.74,1.761,2.324,2.324,0,0,1-2.142,2.31A2.1,2.1,0,0,1,52.437,27.339ZM5.973,21.914h0c-1.183,1.521-1.6,3.011-1.122,3.986.39.794,1.482,1.257,2.994,1.27.034-.26.06-.548.08-.878a3.227,3.227,0,0,1-.968.169,1.436,1.436,0,0,1-1.178-.512c-.964-1.192-.042-2.443.569-3.271l0,0,.226-.311.211-.275.205-.333L7.2,21.4a.3.3,0,0,1,.271-.182l.04,0c.19.028.309.175.43.9l.079.34v.005l0,.007v0l.018.072.006.024.016.066c0,.006.005.009.01.009.038,0,.155-.195.174-.24a8.325,8.325,0,0,1,.528-.885l0,0,0-.005.344-.542a.792.792,0,0,0,.154-.391c0-.144-.113-.248-.32-.389a.727.727,0,0,1-.367-.6,1.392,1.392,0,0,1,.208-.62l.059-.113a5.348,5.348,0,0,0,.37-1.991,3.212,3.212,0,0,0-.5-1.937c-.872-1.231-1.607-1.78-2.383-1.78a1.851,1.851,0,0,0-.4.047,6.055,6.055,0,0,0-1.773.756l-.148.085h0a4.4,4.4,0,0,1-1.744.68A7.7,7.7,0,0,0,1.276,15l-.229.073a1.8,1.8,0,0,1,.87.666.484.484,0,0,1,.034.234A5.581,5.581,0,0,1,.787,17.392a.615.615,0,0,0,.071.016H.864a1.028,1.028,0,0,1,.128.028l.032.011a2.556,2.556,0,0,0,.431.119,1.089,1.089,0,0,0,.158.014.974.974,0,0,0,.545-.223c.062-.041.128-.085.195-.131l.007-.005.024-.016h0a.955.955,0,0,1,.452-.229.235.235,0,0,1,.144.052.263.263,0,0,1,.11.216.76.76,0,0,1-.076.283l0,.005a.921.921,0,0,0-.038.276v.066a2.791,2.791,0,0,0,.1.769l.032.112,0,0,0,.008v0l0,.009,0,.014,0,.015,0,.01v0l0,.005a1.571,1.571,0,0,0,.056.159,2.04,2.04,0,0,0,.365-.5c.4-.676.4-.907.4-1.018V17.42c.053-.351.312-.53.771-.53a3.123,3.123,0,0,1,.429.037l.017,0,.08.01.034,0h.01a.533.533,0,0,0,.062.005h.015c.007,0,.064-.012.091-.019a.1.1,0,0,1-.02-.016l0,0,0,0,0,0A2.085,2.085,0,0,1,4.8,15.415a1.656,1.656,0,0,1,.087-.5A1.112,1.112,0,0,1,5.782,14a1.08,1.08,0,0,1,.2-.016A2.858,2.858,0,0,1,7.96,15.218a3.249,3.249,0,0,1,.5,2.383c-.11.505-.244.771-.446.89a.453.453,0,0,1-.235.063.913.913,0,0,1-.271-.053l-.122-.031a.866.866,0,0,0-.163-.014.992.992,0,0,0-.576.172l-.115.077-.047.034,0,0,0,0,0,0,0,0a1.106,1.106,0,0,0-.2.169h0a.9.9,0,0,0,.226.108.786.786,0,0,1,.531.535.971.971,0,0,1,.035.266,2.753,2.753,0,0,1-.635,1.491l-.141.168-.018.024-.19.255,0,.005-.06.081,0,0,0,.005L6,21.875l-.012.017-.017.023Zm-4.6-3.863v.006l0,.027V18.1c-.012.137-.033.365-.033.582a1.447,1.447,0,0,0,.163.783l.064.1a5.292,5.292,0,0,1,.89,1.734.327.327,0,0,1,0,.066,1.711,1.711,0,0,1-.072.426V21.8l-.012.054a1.063,1.063,0,0,0-.035.191h0a.238.238,0,0,0,.045.006c.067,0,.117-.055.26-.361l.089-.183c.193-.387.484-.972.843-1.571l.233-.36a3.468,3.468,0,0,0,.724-2.178c-.035,0-.062,0-.071.011l-.014.016v.025a2.385,2.385,0,0,1-.469,1.3c-.313.534-.567.772-.824.772a.337.337,0,0,1-.059,0c-.323-.042-.422-.406-.482-.623l0-.007L2.591,18.8a3.441,3.441,0,0,1-.163-.969v-.05a1.344,1.344,0,0,1-.8.285,1.888,1.888,0,0,1-.205-.013H1.418l-.023,0Zm56.27,1.464a3.113,3.113,0,0,0,.632,1.874.553.553,0,0,0,.39.161l.061,0a1.81,1.81,0,0,0,.671-.218l.016-.009.146-.083a.068.068,0,0,0,.039-.053.05.05,0,0,0-.029-.041.905.905,0,0,1-.451-.725,5.316,5.316,0,0,1,.549-1.989.891.891,0,0,0,.07-.374,2.738,2.738,0,0,0-.287-1.093c-.057-.021-.107-.041-.151-.059l0,0-.012,0-.028-.014a.087.087,0,0,0-.024-.007h-.009a2.145,2.145,0,0,0-.1.523,10.271,10.271,0,0,1-.426,1.846l-.04.164c-.029.17-.07.4-.294.473a.355.355,0,0,1-.1.015C58.1,19.893,57.914,19.78,57.645,19.515ZM54.712,13.7a2.86,2.86,0,0,0-1.068.228l-.06.023a2.907,2.907,0,0,0-1.481,1.36,4.646,4.646,0,0,0,.172,4.017c.186.344.824,1.426,1.307,2.163.032-.142.075-.288.116-.429l.021-.07a2.8,2.8,0,0,0,.1-.379,1.764,1.764,0,0,1,.172-.5,3.5,3.5,0,0,1-1.31-3.471v-.016a2.477,2.477,0,0,1,1.274-1.987A2.364,2.364,0,0,1,55,14.423a3.157,3.157,0,0,1,1.261.256l.092.048,0,0c.2.1.465.23.484.5a.114.114,0,0,1,0,.031.556.556,0,0,1-.262.419,1.249,1.249,0,0,0-.345.844,4.216,4.216,0,0,0,1.459,2.372l.164.173a2.927,2.927,0,0,0,.335.312.306.306,0,0,0,.01-.051l.068-.262a9.926,9.926,0,0,0,.394-1.726l0-.036c.014-.109.027-.213.045-.309a3.246,3.246,0,0,0,.033-.5c0-.164,0-.239.087-.239a1.734,1.734,0,0,1,.426.136l.115.044.03.01.039.014.03.015h0a.968.968,0,0,0,.4.1.822.822,0,0,0,.269-.048c.176-.063.255-.145.27-.2a.053.053,0,0,0,.005-.023.242.242,0,0,0-.064-.131,1.01,1.01,0,0,1-.219-.648,1.548,1.548,0,0,1,.192-.721v-.007l.006,0a.727.727,0,0,0,.141-.335.538.538,0,0,0-.245-.032l-.119,0h-.026l-.122,0a.775.775,0,0,1-.15-.012,3.567,3.567,0,0,1-.493-.175l-.039-.016a4.41,4.41,0,0,0-.849-.287.367.367,0,0,0-.048,0,2.694,2.694,0,0,0-.561.11,3.916,3.916,0,0,1-.963.167,1.583,1.583,0,0,1-.186-.011,4.522,4.522,0,0,1-1.055-.336l-.015-.006A2.813,2.813,0,0,0,54.712,13.7ZM40,17.724a15.176,15.176,0,0,1,.6,2.309,3.691,3.691,0,0,1,.9-.356h0l0,0h.005l.013,0,.03-.009.022-.007h0l.03-.009.021-.006.025-.008.009,0a4.205,4.205,0,0,0,.656-.277,5.539,5.539,0,0,1-.271-1.5ZM9.931,7.542a.017.017,0,0,1,.013.007.439.439,0,0,1,.016.236,5.168,5.168,0,0,0-.037,1.56,2.926,2.926,0,0,0,.878,1.877,7.041,7.041,0,0,0,3.173,1.423l.694.109a8.88,8.88,0,0,1,1.783.37,2.745,2.745,0,0,1,1.519,1.084c.042.068.083.133.126.2l.012.018,0,.006.011.017a1.433,1.433,0,0,1,.368,1.012,1.287,1.287,0,0,1-.672.794l-.236.119c.373.252.756.508,1.107.739.72.478,1.265.842,1.724,1.168a4.711,4.711,0,0,0-.1-2.589,5.636,5.636,0,0,0-3.3-3.008h0l-.03-.015-.047-.023c-.079-.038-.2-.095-.314-.153l-.652-.342a5.843,5.843,0,0,1-1.913-1.731l0,0-.2-.254a2.9,2.9,0,0,1-.4-.541,1.991,1.991,0,0,1-.34-1.357c0-.017,0-.032,0-.045.007-.07.025-.108.052-.108s.064.052.08.123l0,.007,0,.012v.007a1.356,1.356,0,0,0,.586.951c.077.025.146.05.21.077l.023.009.036.014h0a1.243,1.243,0,0,0,.217.07,3.487,3.487,0,0,1,1.384.557l.4.334a5.846,5.846,0,0,0,.6.488.621.621,0,0,0,.3.077.294.294,0,0,0,.265-.11,1.42,1.42,0,0,0-.048-.173,1.265,1.265,0,0,1-.1-.452.365.365,0,0,1,.111-.283.323.323,0,0,1,.228-.086,1.01,1.01,0,0,1,.4.12l0,0L18,9.908a.145.145,0,0,0,.041.006.413.413,0,0,0,.3-.221c.058-.089.126-.425-.3-.787-.3-.25-1.112-1.053-1.707-1.639l0,0h0l0,0-.09-.089c-.487-.479-.933-.916-1.05-1.016l-.009-.009-.005,0,0,0c-.227-.211-.6-.6-.572-.82a.2.2,0,0,1,.039-.089l.027-.073,0-.007,0-.012h-.187l-.042-.009c-.1-.024-.213-.044-.381-.072l-.015,0-.011,0h-.01l-.214-.035a.828.828,0,0,0-.142-.01,1.213,1.213,0,0,0-.176.012l-.2.041-.132.037-.006,0-.015,0-.013,0-.005,0-.006,0c-.075.023-.156.047-.24.066.133.111.195.183.184.214,0,.012-.019.018-.046.018a3,3,0,0,1-.607-.181l0,0h0l-.011,0h0l-.016-.006h0c-.136-.049-.3-.109-.418-.138a2.2,2.2,0,0,0-.4-.046c-.146,0-.176.029-.177.03-.062.088.109.5.4.854a.247.247,0,0,1,0,.344.216.216,0,0,1-.15.068.533.533,0,0,1-.3-.178l0,0-.067-.059,0,0-.011-.01,0,0c-.063-.056-.149-.133-.2-.164A.988.988,0,0,0,10.51,5.7a.321.321,0,0,0-.076.007,2.1,2.1,0,0,0-.819.635l-.189.2A6.053,6.053,0,0,1,6.641,7.954l.017.01h0l0,0,0,0a1.242,1.242,0,0,0,.179.1,1.276,1.276,0,0,1,.7,1.327,5.931,5.931,0,0,1-.111.992,1.771,1.771,0,0,0,.188-.046l.068-.018.012,0h0a1.867,1.867,0,0,1,.435-.088.3.3,0,0,1,.23.09c.15.149.1.344-.009.736l-.014.074-.019.109v.025a4.627,4.627,0,0,0-.1.76.788.788,0,0,0,.041.287,4.087,4.087,0,0,0,.587.962.214.214,0,0,0,.038.035.3.3,0,0,0,.088-.088l.034-.038a.677.677,0,0,1,.1-.109h0a1.547,1.547,0,0,0,.2-.3l0,0,0,0v0c.047-.085.079-.141.116-.141.066,0,.147.179.356.719.029.069.06.153.1.256l.008.02A1.742,1.742,0,0,0,11.1,14.859a.816.816,0,0,0,.227.048.082.082,0,0,0,.039-.007.355.355,0,0,0,.079-.176,2.352,2.352,0,0,0,.038-.291c.005-.06.012-.131.023-.2.018-.143.027-.281.034-.381v-.065c.015-.247.023-.4.1-.4s.255.173.664.684c.026.027.049.053.075.086l.005.005,0,.007a5.051,5.051,0,0,1,.5.851.991.991,0,0,0,.486.2.386.386,0,0,0,.059,0c.126,0,.15-.061.184-.223.017-.078.029-.152.039-.215v-.006l0-.011,0-.016v0c.024-.157.039-.252.092-.252s.145.093.348.356c.158.222.184.24.553.382a2.6,2.6,0,0,0,.891.21.354.354,0,0,0,.2-.039.9.9,0,0,0-.012-.3v-.01c-.008-.049-.019-.109,0-.129a.025.025,0,0,1,.021-.009c.05,0,.177.086.469.319a1.11,1.11,0,0,1,.219.232l.011.015a4.729,4.729,0,0,0,.67.526l.437-.206c.28-.175.436-.337.464-.483.031-.17-.1-.373-.274-.629l-.013-.019-.012-.018-.012-.018c-.037-.055-.081-.122-.125-.193-.547-.874-1.968-1.148-2.989-1.277l-.659-.1a7.9,7.9,0,0,1-3.462-1.548,2.83,2.83,0,0,1-.86-2.151,6.8,6.8,0,0,1,.227-1.746C9.893,7.565,9.917,7.542,9.931,7.542Zm37.11,7.533a.03.03,0,0,1,.025.011c.022.029,0,.114-.034.213v.012a1.7,1.7,0,0,0-.1.545,8.846,8.846,0,0,0,.187,1.241c.049.209.12.3.17.323a.151.151,0,0,0,.042.009.118.118,0,0,0,.058-.015l.1-.053.053-.035a1.782,1.782,0,0,0,.637-.773c.045-.084.082-.158.115-.226l.006-.012L48.3,16.3c.028-.057.06-.123.094-.182.05-.094.1-.195.15-.3l.006-.012.013-.027,0-.01.009-.018.005-.012v0l.005-.01,0,0,0,0,.007-.014,0-.009,0-.006,0,0c.078-.168.121-.26.162-.26s.1.151.209.481l.033.1c0,.009.008.027.014.047l.007.024.008.03,0,.009c.035.13.071.258.094.313a.806.806,0,0,0,.643.384.366.366,0,0,0,.072,0c.209-.026.241-.343.261-1.01l.013-.345c.041-.864.511-.977.822-1.052h.005l.131-.03,0,0a.587.587,0,0,0,.1-.039.253.253,0,0,0,0-.057c0-.084,0-.177-.014-.277l-.01-.167a.681.681,0,0,1,0-.085c0-.46.268-.752.8-.867l.041-.008a1.033,1.033,0,0,0,.287-.125l0,0,.007,0,.008,0,.077-.041.011-.007a.061.061,0,0,1,0-.011v-.007a.05.05,0,0,0,0-.007,1.464,1.464,0,0,0-.071-.273l-.012-.034a1.17,1.17,0,0,1-.061-.31,1.07,1.07,0,0,1,.395-.7.5.5,0,0,0,.176-.309.24.24,0,0,0-.051-.135v0l-.017-.029a1.319,1.319,0,0,1-.192-.621v-.031c0-.285.287-.529.565-.765l.233-.212a.082.082,0,0,0,.014-.024.07.07,0,0,1,.009-.017.95.95,0,0,1-.227.022,2.662,2.662,0,0,1-1.616-.872,3.866,3.866,0,0,1-.659-1.2l-.006-.013a4.212,4.212,0,0,0-.372-.763,4.39,4.39,0,0,0-.381-.4l0,0,0,0,0,0L50.1,5.963l0,0,0,0,0,0,0,0-.007-.007-.012-.011a3.826,3.826,0,0,1-.647-.756,2.982,2.982,0,0,1-.289-.942v0l0-.014a2.181,2.181,0,0,0-.163-.609.092.092,0,0,1-.012-.014.414.414,0,0,0-.163.114,4.646,4.646,0,0,1-2.2.886l-.6-.01-.107,0c-.209-.005-.47-.012-.777-.012-.155,0-.239,0-.279.005a1.649,1.649,0,0,0-.563.213h0l-.03.015a2.073,2.073,0,0,1-.576.226,1.17,1.17,0,0,1-.248.018c-.078,0-.194-.006-.327-.014h-.028c-.1-.005-.223-.011-.339-.011a2.071,2.071,0,0,0-.5.046.311.311,0,0,0-.209.1.137.137,0,0,0-.013.068.832.832,0,0,0,.07.258v0l0,.007.047.105v0a1.293,1.293,0,0,1,.159.537.539.539,0,0,1-.192.419c-.017.012-.052.038-.052.141a.787.787,0,0,0,.043.251.6.6,0,0,0,.09.2l0,0a.318.318,0,0,0,.061-.015l.009-.006.01,0a2.606,2.606,0,0,1,.525-.056,1.919,1.919,0,0,1,1.077.278.606.606,0,0,1,.247.485v.023c-.025.629-.428.707-.818.783l-.335.074c-.332.088-.373.211-.378.246a.516.516,0,0,0,.04.051l0,0,.006.007,0,0h0l0,.005v0l0,0a7.585,7.585,0,0,1,.488.613c.082.113.146.153.178.153h0a.11.11,0,0,0,.073-.05l.023-.032.033-.024A2.906,2.906,0,0,1,45,9.169a8.3,8.3,0,0,0,1.542-.385l.282-.111.035.3a3.067,3.067,0,0,1-.045,1.076L46.8,10.1a3.622,3.622,0,0,1-3.424,2.486l-.983.061h0c-2.012.11-2.844.156-2.8,1.844,0,.561.431,1.225.987,1.239H40.6c.473,0,.954-.681,1.159-.972a1.805,1.805,0,0,1,1.286-1.087c.592-.117,2.782-.349,3.791-.44a3.357,3.357,0,0,0,2.649-1.439,6.233,6.233,0,0,0,.546-3.155c-.091-.411-.079-.536-.053-.569a.025.025,0,0,1,.02-.01c.067,0,.208.262.255.474a7.012,7.012,0,0,1-.368,3.5,3.784,3.784,0,0,1-3.01,1.667c-.962.084-3.15.32-3.739.435a1.346,1.346,0,0,0-1.048,1.379.523.523,0,0,0,.137.4.642.642,0,0,0,.439.119,2.751,2.751,0,0,0,.276-.015h.016l.14-.009.443-.024c.128-.012.279-.031.448-.056H44l.015,0h.008a1.211,1.211,0,0,1,.145-.017c.022,0,.034,0,.039.012s-.005.045-.032.1l0,0v.012l0,0v0a1.745,1.745,0,0,0-.115.3l0,.006v.009a.192.192,0,0,0,0,.023.428.428,0,0,0-.016.111c0,.037.067.059.181.059a.826.826,0,0,0,.265-.039c.283-.117,1.3-.566,1.493-.682.065-.04.155-.1.243-.159l.005,0,0,0h0l.008-.005,0,0C46.761,15.219,46.967,15.076,47.041,15.076ZM38.6,14.816a13.6,13.6,0,0,1,1.229,2.43l2.252.141a2.386,2.386,0,0,1,.317-.912.868.868,0,0,1-.769-.816,1.452,1.452,0,0,1-1.033.54h-.024a1.639,1.639,0,0,1-1.408-1.377,2.051,2.051,0,0,1-.247.01A2.193,2.193,0,0,1,38.6,14.816Zm-8.1-4.8a8.738,8.738,0,0,1,4.58,1.29,4.007,4.007,0,0,1-.123-1.086,10.29,10.29,0,0,0-8.862-.027,4.511,4.511,0,0,1-.139,1.093A8.672,8.672,0,0,1,30.5,10.014Zm0-1.281a10.626,10.626,0,0,1,4.505.992,2.645,2.645,0,0,1,.3-.909,11.957,11.957,0,0,0-9.525-.023,2.98,2.98,0,0,1,.277.9A10.727,10.727,0,0,1,30.5,8.733Zm4.382-6.112a2.57,2.57,0,0,1,.391.025,1.8,1.8,0,0,1,1.417.881,2.247,2.247,0,0,1-.424,2.385A10.235,10.235,0,0,1,34.427,7.95l-.018.023c.337.11.692.248,1.057.407l.011-.011c.072-.075.124-.128.159-.162a.852.852,0,0,1,.822-1.073,1.149,1.149,0,0,1,.171.016.99.99,0,0,1,.885-1.439.478.478,0,0,1,.09.005,1.231,1.231,0,0,1-.209-.673,1.2,1.2,0,0,1,.841-1.137,1.192,1.192,0,0,1-.645-1.058,1.4,1.4,0,0,1,.055-.358,1.258,1.258,0,0,1-.612.152,1.285,1.285,0,0,1-1.27-1.083.989.989,0,0,1-1.6.027.849.849,0,0,1-1.636.147l-.01.009L32.18,3.527A5.347,5.347,0,0,1,34.885,2.621ZM24.607,7.134a.852.852,0,0,1,.852.849.923.923,0,0,1-.023.192,2.186,2.186,0,0,1,.149.2c.413-.177.761-.31,1.062-.406L26.63,7.95a10.155,10.155,0,0,1-1.846-2.038,2.264,2.264,0,0,1-.424-2.385,1.8,1.8,0,0,1,1.42-.881,2.709,2.709,0,0,1,.391-.025,5.337,5.337,0,0,1,2.707.906l-.332-1.784-.005,0a.848.848,0,0,1-1.633-.153A.992.992,0,0,1,25.3,1.56a1.284,1.284,0,0,1-1.268,1.083,1.238,1.238,0,0,1-.611-.152,1.285,1.285,0,0,1,.056.358,1.191,1.191,0,0,1-.649,1.058,1.2,1.2,0,0,1,.844,1.137,1.213,1.213,0,0,1-.21.673c.052,0,.076-.005.091-.005a.993.993,0,0,1,.991.993.955.955,0,0,1-.106.446A.722.722,0,0,1,24.607,7.134ZM36.457,7.6a.387.387,0,1,0,.387.386A.387.387,0,0,0,36.457,7.6Zm-11.851,0a.387.387,0,1,0,.387.386A.387.387,0,0,0,24.607,7.6ZM34.88,3.021a5.43,5.43,0,0,0-2.807,1.072l-.609,3.288-.006,0a12.192,12.192,0,0,1,2.426.428l.01-.013a8.539,8.539,0,0,0,1.983-2.1,1.926,1.926,0,0,0,.4-2.009,1.344,1.344,0,0,0-1.064-.65A2.3,2.3,0,0,0,34.88,3.021Zm-8.7,0a2.283,2.283,0,0,0-.327.021,1.348,1.348,0,0,0-1.067.65,1.93,1.93,0,0,0,.4,2.009,8.318,8.318,0,0,0,1.983,2.093l.012.012a12.614,12.614,0,0,1,2.419-.424l0,0-.609-3.287A5.37,5.37,0,0,0,26.177,3.021Zm4.345,4.328c.224,0,.373.005.478.01l0-.006,1.09-5.864a.945.945,0,0,1-.829-.879c0-.121-.158-.134-.225-.134H30c-.068,0-.227.013-.227.134a.944.944,0,0,1-.8.876l1.089,5.866v.006C30.2,7.352,30.351,7.349,30.522,7.349Zm6.991-1.171a.526.526,0,1,0,.526.525A.528.528,0,0,0,37.513,6.178Zm-13.96,0a.526.526,0,1,0,.528.525A.527.527,0,0,0,23.553,6.178ZM38.584,4.319a.723.723,0,1,0,.722.724A.726.726,0,0,0,38.584,4.319Zm-16.1,0a.723.723,0,1,0,.722.724A.725.725,0,0,0,22.483,4.319ZM9.952,3.117a1.38,1.38,0,0,0-.606.128.6.6,0,0,0-.352.47,1.333,1.333,0,0,0,.579,1.068c.237.2.45.366.651.51a1.2,1.2,0,0,1,.116-.036A.711.711,0,0,1,10.5,5.24a.947.947,0,0,1,.188.021.133.133,0,0,0,.047-.009,8.729,8.729,0,0,1-.956-.714,1.143,1.143,0,0,1-.47-.744l0-.045a.272.272,0,0,1,.174-.216,1.032,1.032,0,0,1,.458-.091,3.432,3.432,0,0,1,1.1.235l.008,0a2.408,2.408,0,0,0,.517.065h.052l.056,0,.241.8.028.1c.183.026.381.064.662.118h.041v0c-.024-.072-.052-.156-.094-.279l0-.006L12.532,4.4l-.03-.087v0c-.077-.224-.21-.613-.242-.711a2.057,2.057,0,0,0,.374-.362c.425-.618.811-.96,1.146-1.017a.32.32,0,0,1,.057,0,.185.185,0,0,1,.149.055.645.645,0,0,1,.121.431,1.8,1.8,0,0,1-.055.416,5.9,5.9,0,0,1-.5,1.431h0a.43.43,0,0,1,.063-.006h.048a.925.925,0,0,1,.185.016l.042.008.012,0h.005l.011,0h0l.01,0,.011,0,.01,0,.019,0a7.882,7.882,0,0,0,.453-1.367,2.012,2.012,0,0,0,.067-.508,1.027,1.027,0,0,0-.221-.7.583.583,0,0,0-.439-.185.7.7,0,0,0-.119.009A2.266,2.266,0,0,0,12.4,2.889a1.4,1.4,0,0,1-.244.284l-.083.073-.232-.72c-.067.024-.248.082-.509.165l-.013,0c0,.015.012.039.024.077l0,.005.007.022.007.022.007.021.031.1.032.1.04.125v0l.015.047v0l.007.021.022.07,0,.008.015.045v0l.011.036,0,.006-.1,0a1.265,1.265,0,0,1-.351-.048A3.44,3.44,0,0,0,9.952,3.117Zm0,.772a.811.811,0,0,0-.146.011,1.182,1.182,0,0,0,.261.293,7.651,7.651,0,0,0,.882.66v0l0-.007c.009-.017.017-.03.027-.047a.51.51,0,0,1,.435-.2h.043l-.135-.415a2.645,2.645,0,0,1-.378-.063l-.014,0-.016-.007A3.063,3.063,0,0,0,9.954,3.888Zm3.771-1.254a2.38,2.38,0,0,0-.779.82l-.008.008-.008.01a2.691,2.691,0,0,1-.227.246l.29.911A.625.625,0,0,0,13.2,4.4l.009-.021.011-.015v0a5.593,5.593,0,0,0,.463-1.335,1.347,1.347,0,0,0,.045-.323.2.2,0,0,0,0-.02v-.02a.126.126,0,0,1,0-.028Zm25.055-.511a.725.725,0,1,0,.722.725A.725.725,0,0,0,38.779,2.124Zm-16.491,0a.725.725,0,1,0,.721.725A.726.726,0,0,0,22.289,2.124ZM37.033.535a.822.822,0,1,0,.825.822A.822.822,0,0,0,37.033.535Zm-13,0a.822.822,0,1,0,.823.822A.824.824,0,0,0,24.031.535Zm9.289.521a.385.385,0,1,0,.386.387A.386.386,0,0,0,33.32,1.056Zm-5.578,0a.385.385,0,1,0,.389.387A.386.386,0,0,0,27.742,1.056Zm7.21-.59a.526.526,0,1,0,.528.526A.526.526,0,0,0,34.952.466Zm-8.84,0a.526.526,0,1,0,.525.526A.527.527,0,0,0,26.112.466Z" transform="translate(0 0)" fill="#fff"/>
        </g>
      </g>
      <path id="Fill_114" data-name="Fill 114" d="M1.233.216A1.365,1.365,0,0,0,.208.03.244.244,0,0,0,0,.239C0,.361.256.594.4.69A.7.7,0,0,0,.966.74,2.812,2.812,0,0,1,1.419.594c.193-.05.157-.147.109-.181S1.33.3,1.233.216" transform="translate(44.93 5.206)" fill="#fff"/>
      <path id="Fill_116" data-name="Fill 116" d="M.149.331A4.422,4.422,0,0,0,.733.654c.33.134.374-.009.473-.333S1.107,0,.983,0,.526.021.295.045C-.188.1.043.288.149.331" transform="translate(13.689 6.652)" fill="#fff"/>
    </g>
  </g>
</svg>
